<svg xmlns="http://www.w3.org/2000/svg" viewBox="0 0 120 120"><rect width="120" height="120" rx="26" fill="#d2c79d"/><g style="color:#171612"><path d="M101.3 54.2C101.7 58.8 102.3 64.7 101.8 68.0C101.3 71.3 100.0 72.2 98.3 73.9C96.7 75.7 94.6 77.4 91.9 78.7C89.3 80.0 85.7 80.9 82.4 81.8C79.1 82.7 75.9 83.8 72.2 84.0C68.4 84.2 63.7 83.1 59.8 83.0C55.8 82.9 52.3 83.4 48.5 83.4C44.6 83.3 40.3 83.3 36.6 82.5C33.0 81.8 29.2 80.4 26.6 78.8C24.1 77.3 22.9 75.1 21.5 73.2C20.1 71.4 18.7 70.9 18.2 67.7C17.7 64.6 18.4 59.0 18.5 54.4C18.6 49.8 18.0 43.4 18.6 40.0C19.2 36.7 20.7 36.0 22.3 34.2C23.9 32.5 25.9 30.8 28.3 29.6C30.6 28.4 32.9 27.8 36.4 27.2C39.8 26.5 45.1 26.2 49.0 25.7C53.0 25.2 56.6 24.2 60.2 24.0C63.8 23.9 66.8 24.5 70.8 24.8C74.8 25.1 80.6 25.3 84.2 26.0C87.7 26.6 89.8 27.6 92.0 28.9C94.1 30.2 95.9 32.0 97.1 33.9C98.4 35.8 98.8 37.0 99.5 40.4C100.2 43.7 100.9 49.6 101.3 54.2Z" fill="none" stroke="currentColor" stroke-width="6" stroke-linecap="round" stroke-linejoin="round"></path><path d="M44.0 82.1C43.3 83.7 41.4 88.5 39.8 91.5C38.2 94.5 34.2 99.5 34.3 100.0C34.4 100.6 37.8 96.4 40.3 94.7C42.8 93.0 46.4 91.5 49.3 89.7C52.3 87.9 56.4 84.7 57.8 83.7" fill="none" stroke="currentColor" stroke-width="6" stroke-linecap="round" stroke-linejoin="round"></path><path d="M33.6 49.8C34.8 47.9 37.7 37.0 40.5 38.8C43.4 40.6 48.0 60.2 50.9 60.3C53.8 60.5 55.2 39.4 57.7 39.7C60.1 40.1 62.9 62.4 65.7 62.4C68.5 62.5 71.8 40.7 74.4 40.0C77.0 39.3 79.2 56.4 81.5 58.2C83.8 60.1 87.0 52.2 88.1 51.0" fill="none" stroke="currentColor" stroke-width="5" stroke-linecap="round" stroke-linejoin="round"></path></g></svg>
