<svg viewBox="0 0 120 120" aria-hidden="true" focusable="false"><path d="M8.0 15.2C10.6 16.0 21.2 15.7 23.4 15.0C25.6 14.3 20.9 10.3 21.2 11.0C21.4 11.6 22.7 17.9 25.2 18.8C27.6 19.8 34.2 17.9 35.7 16.6C37.1 15.3 32.0 12.0 33.9 11.2C35.7 10.4 45.0 11.9 46.9 11.9C48.8 11.9 44.5 11.6 45.4 11.1C46.3 10.6 51.1 9.6 52.1 9.1C53.1 8.6 50.0 8.6 51.4 8.0C52.9 7.3 59.1 5.1 61.0 5.0C63.0 5.0 61.9 6.4 63.0 7.8C64.1 9.1 66.3 11.7 67.6 13.2C69.0 14.6 69.4 16.8 71.2 16.7C73.1 16.6 78.3 13.1 78.8 12.6C79.2 12.0 72.0 14.5 73.7 13.6C75.3 12.6 86.7 7.3 88.8 6.8C90.8 6.2 86.0 10.0 85.9 10.3C85.7 10.6 86.4 8.3 87.7 8.5C89.0 8.7 91.3 11.0 93.8 11.5C96.3 11.9 100.9 10.9 102.6 11.2C104.2 11.4 102.6 13.3 103.7 13.2C104.8 13.1 108.3 9.6 109.0 10.3C109.8 11.0 108.7 15.1 108.3 17.4C108.0 19.8 107.6 21.8 107.2 24.3C106.7 26.8 105.8 31.0 105.7 32.5C105.5 34.1 105.7 32.7 106.3 33.8C106.8 34.9 108.3 37.4 108.8 39.3C109.4 41.2 108.7 43.8 109.6 45.0C110.5 46.3 115.1 44.5 114.2 46.8C113.3 49.1 105.1 58.2 104.2 58.7C103.2 59.3 107.8 49.8 108.4 50.1C109.0 50.5 107.6 57.2 107.6 60.7C107.7 64.3 108.1 70.2 108.8 71.4C109.5 72.6 110.9 68.3 111.8 67.8C112.7 67.3 114.6 67.3 114.4 68.4C114.1 69.5 110.9 72.1 110.2 74.5C109.6 76.9 111.5 81.1 110.3 82.9C109.0 84.8 102.7 84.3 102.6 85.6C102.5 87.0 108.4 90.5 109.7 91.1C111.1 91.7 110.6 88.7 110.7 89.2C110.8 89.7 110.9 90.6 110.3 94.1C109.7 97.6 106.6 108.9 107.3 110.3C107.9 111.7 114.8 103.1 114.3 102.6C113.9 102.1 107.2 106.1 104.7 107.0C102.2 108.0 99.7 107.8 99.2 108.4C98.7 108.9 102.5 109.5 101.5 110.2C100.4 110.9 95.4 112.7 92.8 112.6C90.3 112.5 87.4 110.6 86.3 109.6C85.1 108.6 87.3 107.6 86.0 106.8C84.7 106.0 79.9 103.9 78.5 104.8C77.0 105.7 78.7 110.4 77.4 112.2C76.2 114.0 73.5 117.1 70.9 115.4C68.2 113.7 63.5 103.1 61.6 101.8C59.8 100.5 60.9 106.3 59.6 107.8C58.4 109.2 55.5 110.4 54.3 110.5C53.1 110.6 54.0 108.9 52.5 108.6C51.0 108.2 46.6 107.8 45.5 108.3C44.4 108.8 46.3 111.6 45.8 111.7C45.2 111.8 44.3 109.4 42.4 109.0C40.6 108.6 38.2 109.4 34.6 109.2C31.0 109.0 22.5 107.7 21.1 107.8C19.7 107.8 25.8 108.6 26.2 109.6C26.7 110.6 25.3 114.1 23.7 113.9C22.0 113.6 18.0 108.9 16.2 108.0C14.5 107.1 14.0 110.1 13.3 108.6C12.5 107.1 11.7 99.4 11.9 98.7C12.0 98.0 15.1 104.2 14.2 104.6C13.3 105.1 7.6 103.2 6.4 101.3C5.2 99.3 6.4 94.9 7.2 92.8C7.9 90.8 9.5 91.4 10.7 89.1C12.0 86.8 14.0 80.8 14.6 79.2C15.2 77.7 15.6 80.2 14.5 79.8C13.4 79.5 8.4 78.6 8.0 77.2C7.6 75.7 11.0 73.5 12.0 71.2C13.1 68.8 13.9 64.9 14.5 63.1C15.2 61.3 17.2 60.8 16.0 60.4C14.9 60.1 8.3 62.3 7.8 61.1C7.3 60.0 12.8 55.7 13.2 53.6C13.7 51.5 10.3 51.2 10.5 48.5C10.7 45.8 13.9 38.8 14.4 37.5C15.0 36.3 13.9 41.9 13.8 41.1C13.6 40.3 13.4 33.8 13.5 32.7C13.6 31.5 14.8 35.9 14.4 34.0C14.0 32.1 11.8 22.9 11.1 21.4C10.5 19.8 11.2 26.7 10.7 24.8C10.2 23.0 8.4 11.9 8.0 10.3C7.5 8.7 5.5 14.5 8.0 15.2Z" fill="var(--w-mauve)" stroke="none"></path><path d="M84.7 63.4C85.6 65.3 88.0 70.6 87.6 73.1C87.2 75.5 82.8 76.4 82.3 78.1C81.9 79.9 85.1 81.4 84.8 83.4C84.6 85.5 83.1 89.0 80.6 90.4C78.0 91.8 71.4 90.2 69.5 91.8C67.7 93.3 70.6 98.9 69.5 99.7C68.4 100.5 64.9 97.3 63.0 96.4C61.2 95.5 60.2 94.0 58.4 94.4C56.6 94.9 53.4 98.5 52.1 99.0C50.9 99.5 51.7 99.0 51.0 97.4C50.3 95.8 48.8 90.5 47.9 89.2C46.9 87.9 46.9 90.7 45.3 89.6C43.7 88.5 39.1 85.6 38.3 82.6C37.5 79.6 40.1 73.4 40.3 71.7C40.5 69.9 39.8 73.6 39.4 72.0C39.0 70.4 37.9 66.7 38.1 62.2C38.2 57.6 40.5 47.2 40.4 44.7C40.2 42.3 37.1 49.2 36.9 47.7C36.8 46.1 37.0 38.0 39.2 35.3C41.5 32.7 47.8 32.2 50.4 31.8C53.1 31.5 53.8 33.6 55.3 33.2C56.8 32.8 58.7 29.5 59.5 29.5C60.3 29.4 58.6 31.4 60.1 32.7C61.7 34.1 67.6 37.4 68.9 37.7C70.2 38.0 65.6 33.7 67.9 34.7C70.2 35.7 80.5 42.1 82.8 43.9C85.1 45.7 82.5 43.4 81.8 45.5C81.1 47.6 78.5 53.9 78.5 56.6C78.5 59.3 80.7 60.6 81.7 61.7C82.7 62.9 83.7 61.5 84.7 63.4Z" fill="var(--s8)" stroke="none" opacity="0.88"></path><path d="M82.5 64.2C82.6 65.7 81.6 68.0 82.0 68.7C82.3 69.5 84.8 67.8 84.8 68.6C84.8 69.4 82.4 71.3 81.7 73.5C81.0 75.6 81.1 79.8 80.7 81.5C80.3 83.3 79.1 83.5 79.2 83.9C79.3 84.3 82.3 82.9 81.2 84.0C80.1 85.2 74.5 89.4 72.8 90.9C71.1 92.4 72.0 92.4 71.1 93.2C70.1 93.9 68.7 94.4 67.3 95.5C66.0 96.6 64.3 99.5 63.1 99.6C61.9 99.8 61.9 97.2 60.1 96.5C58.2 95.7 54.2 96.0 52.2 95.3C50.2 94.6 49.5 93.6 47.9 92.5C46.4 91.4 43.2 90.4 42.7 88.6C42.2 86.8 45.3 83.3 44.9 81.7C44.5 80.2 41.6 79.9 40.4 79.2C39.3 78.5 37.9 78.6 37.9 77.7C37.9 76.7 40.7 74.3 40.5 73.4C40.3 72.6 37.2 74.0 36.8 72.5C36.4 71.0 38.0 65.9 38.0 64.5C38.1 63.1 37.7 64.7 37.3 64.2C37.0 63.8 36.4 62.4 35.9 61.6C35.5 60.8 34.3 61.3 34.5 59.5C34.6 57.7 36.3 52.5 36.8 50.8C37.4 49.1 37.1 49.9 37.7 49.4C38.2 48.9 40.0 48.8 40.2 47.6C40.4 46.3 38.1 43.1 38.9 41.7C39.7 40.4 43.3 41.0 44.9 39.3C46.6 37.7 47.6 33.5 48.8 31.9C50.0 30.3 50.7 30.0 52.2 29.7C53.6 29.4 55.8 30.5 57.6 30.0C59.3 29.6 61.3 26.7 62.6 27.0C63.9 27.3 63.9 30.2 65.6 32.1C67.3 33.9 71.3 37.2 72.6 38.1C73.9 38.9 72.1 37.0 73.3 37.3C74.6 37.5 79.5 37.4 80.3 39.5C81.1 41.5 78.1 47.2 78.0 49.6C77.9 51.9 79.5 53.0 79.7 53.6C80.0 54.1 79.7 52.8 79.7 52.8C79.7 52.8 79.4 52.5 79.7 53.6C80.0 54.7 81.0 57.5 81.4 59.3C81.9 61.1 82.4 62.6 82.5 64.2Z" fill="none" stroke="currentColor" stroke-width="1.5" stroke-linecap="round" stroke-linejoin="round"></path><path d="M30.8 76.9C30.9 75.9 31.8 71.9 31.8 71.0C31.9 70.2 32.1 72.4 31.2 71.9C30.3 71.4 27.3 69.0 26.5 67.9C25.7 66.7 25.5 66.0 26.4 65.1C27.4 64.1 31.5 62.9 32.3 62.2C33.0 61.6 31.1 61.2 30.9 61.0" fill="none" stroke="currentColor" stroke-width="1.4" stroke-linecap="round" stroke-linejoin="round"></path><path d="M86.6 63.3C87.5 63.5 90.9 64.8 91.8 64.8C92.6 64.8 90.9 62.4 91.6 63.3C92.3 64.1 95.8 68.7 95.8 69.9C95.8 71.2 92.2 70.0 91.5 70.7C90.8 71.3 91.7 73.0 91.5 73.8C91.4 74.6 90.6 75.0 90.5 75.3" fill="none" stroke="currentColor" stroke-width="1.4" stroke-linecap="round" stroke-linejoin="round"></path><path d="M52.3 43.2C51.4 41.0 55.0 38.1 55.7 36.3C56.4 34.5 56.3 33.3 56.7 32.4C57.1 31.5 57.8 32.6 58.0 30.9C58.2 29.2 57.7 24.7 58.0 22.3C58.2 20.0 58.7 18.0 59.5 16.6C60.4 15.3 62.5 15.6 63.0 14.2C63.6 12.8 62.4 9.2 62.9 8.3C63.3 7.4 65.2 8.2 65.5 8.7C65.9 9.1 64.5 10.1 64.7 11.0C65.0 11.9 66.8 12.8 67.1 14.1C67.4 15.4 66.3 17.1 66.6 18.8C66.9 20.5 68.3 22.6 68.8 24.2C69.4 25.9 69.1 26.8 69.9 28.5C70.8 30.2 74.3 32.8 74.0 34.6C73.7 36.3 68.6 37.3 68.1 38.8C67.5 40.4 70.7 43.0 70.7 43.7C70.7 44.5 69.4 42.9 68.0 43.5C66.5 44.1 63.2 46.4 62.1 47.4C60.9 48.4 62.5 50.4 60.9 49.7C59.3 49.0 53.2 45.5 52.3 43.2Z" fill="var(--h-purple)" stroke="none" opacity="0.92"></path><path d="M50.7 44.1C49.9 43.3 52.6 37.9 52.9 36.9C53.3 35.9 53.4 39.2 52.9 38.0C52.3 36.8 49.6 31.6 49.6 29.7C49.6 27.7 52.6 27.3 53.0 26.1C53.4 24.8 52.0 22.8 51.9 22.0C51.7 21.3 52.3 22.2 52.3 21.6C52.3 21.1 51.2 19.3 51.9 18.6C52.6 17.9 55.6 18.4 56.5 17.4C57.4 16.4 57.4 14.3 57.1 12.5C56.9 10.8 54.7 7.5 55.0 7.0C55.2 6.6 57.2 9.3 58.7 9.8C60.1 10.3 63.0 9.5 63.5 10.1C64.1 10.7 62.2 12.6 62.1 13.4C62.1 14.1 62.7 14.3 63.0 14.6C63.3 15.0 63.7 14.4 63.8 15.6C63.8 16.8 63.2 20.3 63.3 21.7C63.4 23.2 64.0 23.6 64.2 24.4C64.5 25.3 63.8 25.4 64.7 26.9C65.7 28.3 69.7 32.0 69.8 33.2C69.8 34.4 65.0 33.6 65.2 34.0C65.4 34.5 71.2 34.7 71.2 35.8C71.3 36.8 66.8 39.1 65.6 40.2C64.4 41.3 65.4 41.3 64.2 42.1C63.0 43.0 59.5 45.3 58.4 45.1C57.3 45.0 59.0 41.5 57.7 41.3C56.5 41.2 51.5 44.8 50.7 44.1Z" fill="none" stroke="currentColor" stroke-width="1.4" stroke-linecap="round" stroke-linejoin="round"></path><path d="M36.4 49.3C37.2 49.0 39.8 47.6 41.4 47.2C42.9 46.8 44.5 47.0 46.0 46.9C47.4 46.8 49.3 46.8 50.0 46.7" fill="none" stroke="currentColor" stroke-width="1.2" stroke-linecap="round" stroke-linejoin="round"></path><path d="M72.3 42.7C72.7 42.7 73.7 42.3 74.3 43.0C74.9 43.7 74.9 46.3 76.0 46.8C77.0 47.3 79.8 46.1 80.5 46.0" fill="none" stroke="currentColor" stroke-width="1.2" stroke-linecap="round" stroke-linejoin="round"></path><path d="M41.2 46.1C42.2 45.8 46.2 43.9 47.1 44.1C48.0 44.3 45.6 46.3 46.6 47.2C47.6 48.2 51.6 49.0 53.0 49.9C54.5 50.7 55.1 52.0 55.5 52.4" fill="none" stroke="currentColor" stroke-width="1.8" stroke-linecap="round" stroke-linejoin="round"></path><path d="M64.9 49.8C65.5 49.7 67.6 49.6 68.6 49.1C69.7 48.6 69.9 48.0 71.1 47.1C72.2 46.2 74.2 44.2 75.6 43.7C77.1 43.2 79.1 44.2 79.8 44.3" fill="none" stroke="currentColor" stroke-width="1.8" stroke-linecap="round" stroke-linejoin="round"></path><path d="M53.6 57.8C53.3 57.9 53.7 58.9 53.3 59.7C52.8 60.5 51.5 62.8 50.7 62.8C49.9 62.7 49.4 60.1 48.6 59.5C47.8 59.0 46.8 59.8 45.9 59.7C45.0 59.6 44.2 59.3 43.4 58.7C42.7 58.1 41.7 56.2 41.6 56.0C41.6 55.7 42.5 57.7 43.2 57.2C43.9 56.8 44.7 53.3 45.8 53.1C46.9 52.8 49.1 55.4 50.1 55.6C51.0 55.9 50.8 53.8 51.6 54.3C52.4 54.8 54.6 58.2 54.9 58.7C55.2 59.3 53.9 57.6 53.6 57.8Z" fill="none" stroke="currentColor" stroke-width="1.4" stroke-linecap="round" stroke-linejoin="round"></path><circle cx="49.5" cy="58.0" r="1.8" fill="currentColor"></circle><path d="M76.9 60.1C76.6 61.2 75.9 60.2 75.3 60.5C74.7 60.9 74.1 62.1 73.3 62.0C72.5 61.9 71.2 60.0 70.5 59.7C69.8 59.4 69.8 60.5 69.2 60.2C68.6 60.0 66.9 58.1 66.7 58.2C66.5 58.4 68.3 60.7 68.1 61.2C67.9 61.7 65.8 62.5 65.6 61.2C65.4 60.0 66.7 54.5 67.0 53.7C67.2 52.9 65.9 56.0 67.0 56.4C68.2 56.7 72.2 56.4 73.9 56.0C75.6 55.6 76.5 53.2 77.0 53.9C77.5 54.6 77.2 59.0 76.9 60.1Z" fill="none" stroke="currentColor" stroke-width="1.4" stroke-linecap="round" stroke-linejoin="round"></path><circle cx="71.5" cy="58.0" r="1.8" fill="currentColor"></circle><path d="M61.5 59.1C61.6 59.2 61.9 59.3 62.0 59.8C62.2 60.4 62.9 61.5 62.6 62.7C62.3 63.8 61.2 65.7 60.2 66.6C59.3 67.5 56.4 66.8 57.0 67.9C57.7 69.0 62.8 72.2 63.9 73.1" fill="none" stroke="currentColor" stroke-width="1.5" stroke-linecap="round" stroke-linejoin="round"></path><path d="M67.4 88.6C67.1 89.6 66.5 91.3 65.8 92.0C65.2 92.8 64.4 92.6 63.4 93.0C62.3 93.4 60.6 94.1 59.5 94.4C58.4 94.8 57.5 95.4 56.7 95.0C55.9 94.7 55.2 93.7 54.7 92.6C54.3 91.4 54.1 89.3 54.0 88.2C53.9 87.1 53.7 86.8 54.1 86.1C54.5 85.4 55.1 84.7 56.3 84.1C57.6 83.5 60.2 82.5 61.4 82.5C62.7 82.5 62.6 83.6 63.6 84.2C64.6 84.7 66.7 85.1 67.3 85.8C67.9 86.6 67.6 87.5 67.4 88.6Z" fill="var(--h-ink)" stroke="none"></path><path d="M67.4 90.2C67.4 90.8 66.6 89.5 65.8 90.3C65.1 91.2 64.0 95.0 63.1 95.4C62.3 95.7 61.8 93.0 60.9 92.7C60.1 92.3 59.8 93.3 58.0 93.2C56.3 93.2 51.2 92.9 50.5 92.4C49.8 91.8 53.6 90.6 54.1 89.9C54.6 89.2 53.2 89.2 53.7 88.2C54.2 87.1 55.7 84.5 57.0 83.7C58.3 82.9 60.0 83.5 61.3 83.4C62.6 83.4 64.0 82.7 64.7 83.3C65.3 83.9 64.9 85.7 65.3 86.9C65.8 88.0 67.3 89.7 67.4 90.2Z" fill="none" stroke="currentColor" stroke-width="1.2" stroke-linecap="round" stroke-linejoin="round"></path><circle cx="86.0" cy="68.0" r="2.4" fill="currentColor"></circle><path d="M89.5 69.2C89.0 69.4 86.5 69.3 86.2 70.6C86.0 71.9 87.5 75.5 87.9 77.0C88.2 78.4 88.3 78.8 88.3 79.2" fill="none" stroke="currentColor" stroke-width="1.2" stroke-linecap="round" stroke-linejoin="round"></path><clipPath id="s31"><path d="M112.0 22.0C112.0 23.6 111.6 25.3 110.8 26.8C110.0 28.3 108.8 29.8 107.3 31.0C105.9 32.2 104.0 33.3 102.0 34.1C100.0 34.9 97.7 35.5 95.5 35.8C93.2 36.1 90.8 36.1 88.5 35.8C86.3 35.5 84.0 34.9 82.0 34.1C80.0 33.3 78.1 32.2 76.7 31.0C75.2 29.8 74.0 28.3 73.2 26.8C72.4 25.3 72.0 23.6 72.0 22.0C72.0 20.4 72.4 18.7 73.2 17.2C74.0 15.7 75.2 14.2 76.7 13.0C78.1 11.8 80.0 10.7 82.0 9.9C84.0 9.1 86.3 8.5 88.5 8.2C90.8 7.9 93.2 7.9 95.5 8.2C97.7 8.5 100.0 9.1 102.0 9.9C104.0 10.7 105.9 11.8 107.3 13.0C108.8 14.2 110.0 15.7 110.8 17.2C111.6 18.7 112.0 20.4 112.0 22.0Z"></path></clipPath><g clip-path="url(#s31)" opacity="0.95"><path d="M69.5 8.0C73.5 8.2 106.2 9.7 110.3 9.9C114.5 10.2 114.8 10.0 110.7 10.3C106.6 10.6 73.2 12.3 69.3 12.6C65.5 12.8 68.3 12.5 72.3 12.5C76.3 12.5 106.0 12.5 109.7 12.6C113.5 12.8 113.2 13.5 109.6 13.9C106.0 14.2 77.6 15.7 73.8 16.1C70.0 16.4 67.8 17.2 71.5 17.3C75.2 17.4 106.9 16.9 110.7 17.0C114.5 17.0 113.3 17.8 109.7 18.0C106.1 18.2 78.7 18.5 74.7 18.9C70.8 19.3 66.6 21.4 70.4 21.8C74.2 22.2 108.9 22.9 112.9 23.0C116.9 23.1 114.2 22.8 110.3 22.9C106.4 22.9 77.2 23.5 73.5 23.7C69.8 24.0 69.4 25.4 73.5 25.7C77.6 26.0 110.6 26.5 114.2 26.6C117.9 26.7 114.0 26.5 109.6 26.8C105.1 27.1 73.5 29.2 69.8 29.6C66.1 30.0 68.1 31.1 72.5 31.2C76.9 31.2 109.7 29.9 113.5 30.1C117.3 30.4 114.3 33.3 110.4 33.6C106.4 34.0 77.8 33.6 73.8 33.8C69.9 34.0 66.7 35.3 70.8 35.6C74.9 35.9 110.5 36.4 114.9 36.5" fill="none" stroke="currentColor" stroke-width="1.3" stroke-linecap="round"></path></g><path d="M122.3 14.0C123.0 16.7 118.2 28.0 114.9 31.7C111.6 35.3 106.9 36.1 102.6 35.8C98.3 35.4 90.4 30.3 89.0 29.6C87.6 28.9 91.5 30.9 94.0 31.7C96.5 32.4 105.2 34.9 104.0 34.3C102.8 33.6 88.5 28.8 86.7 28.0C84.9 27.2 94.2 29.0 93.1 29.3C91.9 29.6 81.5 28.6 79.9 29.7C78.4 30.9 84.4 35.1 83.9 36.2C83.3 37.3 78.3 38.0 76.8 36.4C75.3 34.8 75.1 29.1 74.8 26.6C74.5 24.1 75.3 21.8 74.8 21.1C74.4 20.5 71.1 24.7 72.0 22.5C72.9 20.3 79.6 9.7 80.4 8.0C81.1 6.2 75.2 12.8 76.3 11.8C77.4 10.9 84.6 3.9 87.1 2.5C89.6 1.2 90.5 4.1 91.3 3.7C92.2 3.3 91.7 -1.0 92.3 0.3C93.0 1.7 92.5 11.9 95.2 11.9C97.8 12.0 108.3 0.8 108.1 0.6C107.8 0.5 94.6 8.4 93.6 11.1C92.6 13.8 99.1 16.0 101.9 16.8C104.8 17.5 107.4 16.0 110.8 15.5C114.2 15.1 121.6 11.4 122.3 14.0Z" fill="none" stroke="currentColor" stroke-width="1.2" stroke-linecap="round" stroke-linejoin="round"></path><text x="84" y="34" font-family="Caveat, cursive" font-size="34" font-weight="600" fill="var(--red)" transform="rotate(8 84 34)">!!</text><path d="M43.3 28.8C43.8 28.5 46.6 28.4 46.3 26.8C46.0 25.3 42.3 21.1 41.5 19.3C40.7 17.5 40.1 17.0 41.6 16.0C43.1 14.9 50.6 14.0 50.6 13.1C50.6 12.3 43.3 12.2 41.7 11.0C40.2 9.7 41.3 6.6 41.2 5.7" fill="none" stroke="currentColor" stroke-width="1.2" stroke-linecap="round" stroke-linejoin="round"></path><path d="M60.5 29.1C60.2 28.2 59.2 26.1 58.5 24.0C57.8 22.0 55.9 18.6 56.2 17.0C56.5 15.4 59.8 15.4 60.4 14.5C61.0 13.6 59.8 12.2 59.8 11.5C59.7 10.8 61.0 12.0 60.2 10.5C59.3 8.9 55.5 3.6 54.6 2.2" fill="none" stroke="currentColor" stroke-width="1.2" stroke-linecap="round" stroke-linejoin="round"></path><path d="M78.0 26.1C77.2 25.5 74.3 23.5 73.4 22.6C72.4 21.8 71.5 21.4 72.3 20.9C73.2 20.4 77.3 21.3 78.4 19.8C79.5 18.3 79.5 14.0 78.9 11.8C78.4 9.6 76.1 7.1 75.1 6.4C74.0 5.8 73.1 7.7 72.7 7.9" fill="none" stroke="currentColor" stroke-width="1.2" stroke-linecap="round" stroke-linejoin="round"></path></svg>
