<svg viewBox="0 0 120 120" aria-hidden="true" focusable="false"><path d="M113.7 64.3C114.9 66.7 117.6 70.4 117.4 71.8C117.3 73.1 114.3 71.5 112.9 72.3C111.5 73.1 109.1 74.1 108.8 76.6C108.6 79.1 112.3 84.5 111.3 87.2C110.3 89.9 104.7 91.9 102.9 92.8C101.1 93.6 101.6 90.6 100.3 92.1C99.0 93.6 95.8 99.8 94.9 101.8C94.1 103.9 96.5 103.3 95.4 104.4C94.2 105.5 89.3 107.2 88.0 108.4C86.6 109.5 88.9 110.5 87.2 111.3C85.5 112.2 81.2 112.3 78.0 113.5C74.8 114.7 69.7 117.2 68.0 118.5C66.4 119.8 70.2 121.8 68.2 121.5C66.1 121.2 57.9 117.8 55.6 116.8C53.3 115.8 54.8 115.8 54.4 115.4C53.9 115.0 55.4 115.2 53.0 114.5C50.6 113.8 42.7 112.0 40.0 110.9C37.3 109.9 38.2 108.4 36.6 108.2C35.1 108.1 31.8 110.6 30.7 110.0C29.5 109.4 31.3 106.6 29.7 104.7C28.1 102.9 23.0 99.9 21.1 99.0C19.1 98.1 18.7 100.4 18.0 99.2C17.3 98.1 17.7 94.7 16.9 92.3C16.0 89.8 14.8 86.4 12.9 84.6C11.0 82.7 5.8 82.5 5.4 81.2C5.1 79.8 10.4 78.7 10.8 76.5C11.1 74.3 7.9 70.7 7.5 67.9C7.0 65.1 8.0 61.4 8.0 59.7C8.0 58.1 7.3 59.0 7.6 58.2C7.9 57.3 9.3 56.1 9.8 54.7C10.3 53.4 10.3 52.1 10.6 50.2C10.9 48.2 10.7 45.8 11.4 43.0C12.2 40.2 13.5 35.4 14.9 33.4C16.2 31.4 19.1 32.0 19.3 31.2C19.6 30.3 14.5 29.0 16.4 28.2C18.4 27.3 28.1 27.8 30.9 26.2C33.7 24.5 32.6 19.9 33.1 18.3C33.5 16.6 32.2 16.5 33.5 16.5C34.7 16.6 38.5 19.3 40.5 18.8C42.5 18.3 43.5 14.5 45.7 13.6C47.9 12.6 51.5 13.4 53.9 13.0C56.3 12.6 57.7 11.7 60.1 11.1C62.5 10.5 66.3 8.3 68.3 9.4C70.4 10.4 71.0 15.5 72.4 17.6C73.7 19.7 74.2 23.0 76.3 22.1C78.5 21.1 82.4 12.1 85.2 12.1C87.9 12.2 91.8 20.5 92.9 22.2C94.0 24.0 91.6 21.6 91.9 22.7C92.2 23.9 92.4 27.3 94.8 28.9C97.2 30.5 104.4 30.3 106.3 32.4C108.2 34.6 105.3 40.2 106.2 42.0C107.2 43.8 111.5 42.5 111.7 43.3C112.0 44.0 107.6 45.1 107.9 46.5C108.2 47.9 113.3 49.9 113.7 51.7C114.0 53.5 110.0 55.2 110.0 57.3C110.0 59.4 112.4 61.9 113.7 64.3Z" fill="none" stroke="var(--w-gray)" stroke-width="3.5" stroke-linecap="round" stroke-linejoin="round"></path><path d="M35.5 48.7C36.3 46.0 35.1 46.1 34.6 43.4C34.0 40.8 30.3 34.3 32.2 33.0C34.2 31.8 43.6 36.6 46.2 36.1C48.7 35.5 45.8 30.9 47.4 29.9C49.0 28.8 53.2 30.1 55.8 29.8C58.4 29.6 61.4 28.7 63.2 28.5C65.0 28.3 64.0 28.2 66.5 28.7C69.0 29.1 75.8 29.6 78.2 31.1C80.6 32.7 79.4 36.9 80.8 38.0C82.3 39.1 85.3 37.1 87.0 37.8C88.8 38.6 89.5 40.5 91.2 42.6C92.9 44.8 97.1 47.6 97.2 50.6C97.4 53.6 92.3 58.9 92.1 60.4C91.8 61.9 95.0 57.4 95.7 59.7C96.4 62.1 95.3 71.3 96.3 74.6C97.3 77.9 101.8 76.4 101.7 79.7C101.6 82.9 97.7 90.8 95.9 94.0C94.0 97.2 91.7 97.5 90.8 99.1C89.9 100.7 89.7 101.0 90.5 103.4C91.3 105.8 96.1 111.4 95.5 113.3C95.0 115.3 90.1 115.4 87.3 115.1C84.5 114.8 81.3 111.8 78.7 111.7C76.1 111.7 74.5 114.6 71.8 114.6C69.2 114.5 65.1 111.9 62.7 111.4C60.4 110.8 59.7 110.3 57.8 111.1C55.9 111.8 53.6 115.7 51.4 115.8C49.3 115.9 46.6 111.2 45.0 111.7C43.4 112.2 44.2 118.4 41.8 118.7C39.4 119.0 33.0 116.0 30.7 113.3C28.3 110.7 27.9 105.3 27.7 102.9C27.5 100.4 29.5 101.1 29.4 98.5C29.3 95.9 27.4 90.8 27.3 87.4C27.2 84.0 28.5 80.5 28.8 78.0C29.1 75.6 28.1 74.5 29.0 72.6C29.8 70.7 33.7 68.9 33.8 66.7C34.0 64.6 29.5 62.6 29.8 59.6C30.0 56.6 34.7 51.4 35.5 48.7Z" fill="var(--h-auburn)" stroke="none" opacity="0.92"></path><path d="M29.2 49.2C29.9 47.5 32.9 44.0 33.6 42.3C34.2 40.6 32.7 40.2 32.9 38.9C33.1 37.6 33.4 35.7 34.7 34.6C35.9 33.5 38.8 32.9 40.2 32.6C41.6 32.2 41.2 33.1 43.1 32.6C44.9 32.1 49.4 30.0 51.4 29.5C53.5 29.0 54.3 30.3 55.5 29.3C56.7 28.4 56.6 23.5 58.5 23.8C60.4 24.2 64.9 30.7 66.9 31.4C68.9 32.1 68.9 28.6 70.3 28.1C71.6 27.5 72.7 26.9 74.9 28.1C77.1 29.3 81.8 34.2 83.5 35.2C85.3 36.2 84.6 33.3 85.6 34.1C86.6 34.8 89.5 37.9 89.8 39.6C90.0 41.3 87.6 43.1 87.3 44.4C87.0 45.6 87.0 45.5 87.9 47.1C88.8 48.8 92.7 52.2 92.8 54.2C92.8 56.2 87.7 57.0 88.2 59.0C88.7 61.0 94.3 63.9 95.8 66.0C97.2 68.2 96.9 70.3 97.0 72.1C97.2 73.9 97.3 75.5 96.7 76.9C96.2 78.3 93.8 78.8 93.6 80.6C93.4 82.5 95.0 85.9 95.3 87.9C95.6 89.8 95.6 90.5 95.4 92.2C95.2 94.0 94.4 97.0 94.1 98.4C93.8 99.7 94.0 98.1 93.6 100.2C93.1 102.3 92.0 109.0 91.5 110.9C91.0 112.7 92.0 111.6 90.6 111.3C89.1 111.1 84.7 109.9 83.0 109.6C81.2 109.3 81.5 109.6 80.2 109.7C78.8 109.7 77.2 110.4 75.1 110.0C73.0 109.5 69.7 106.9 67.5 107.1C65.4 107.2 63.3 109.9 62.4 110.9C61.4 112.0 62.6 113.3 61.6 113.2C60.7 113.1 58.3 110.5 56.8 110.3C55.2 110.1 54.5 111.1 52.4 112.1C50.4 113.2 46.9 116.5 44.6 116.6C42.2 116.7 40.2 113.3 38.6 112.8C36.9 112.3 35.9 113.9 34.8 113.7C33.7 113.4 33.2 111.9 32.0 111.2C30.8 110.5 28.7 111.0 27.8 109.3C26.8 107.7 26.7 103.3 26.3 101.2C26.0 99.1 25.8 99.1 25.8 96.8C25.9 94.5 26.8 90.0 26.6 87.6C26.3 85.1 24.3 83.9 24.2 82.1C24.2 80.4 26.3 78.2 26.4 77.1C26.4 76.0 25.0 76.3 24.6 75.7C24.2 75.0 23.5 74.8 23.8 72.9C24.2 71.1 26.1 66.7 26.9 64.4C27.6 62.2 28.0 61.3 28.4 59.4C28.8 57.5 29.2 54.5 29.4 52.8C29.5 51.1 28.5 51.0 29.2 49.2Z" fill="none" stroke="currentColor" stroke-width="1.4" stroke-linecap="round" stroke-linejoin="round"></path><path d="M40.8 56.4C39.9 57.3 37.2 59.4 35.8 61.6C34.3 63.9 31.8 67.8 31.9 70.0C32.0 72.2 35.1 73.2 36.2 75.0C37.3 76.7 37.7 79.0 38.4 80.6C39.1 82.2 40.6 83.5 40.4 84.5C40.2 85.5 38.3 85.3 37.3 86.5C36.3 87.7 34.7 89.9 34.5 91.8C34.4 93.6 36.2 95.4 36.2 97.5C36.1 99.6 34.1 102.9 34.4 104.4C34.7 105.9 37.5 106.0 38.1 106.4" fill="none" stroke="currentColor" stroke-width="1.1" stroke-linecap="round" stroke-linejoin="round"></path><path d="M82.1 53.7C82.0 55.6 82.0 62.5 81.6 65.5C81.2 68.5 79.7 69.9 79.8 71.5C79.9 73.2 81.6 74.0 82.2 75.3C82.9 76.6 82.5 78.0 83.6 79.6C84.8 81.2 88.9 82.9 89.2 84.7C89.5 86.5 86.7 88.9 85.3 90.4C83.8 91.9 81.2 92.0 80.4 93.7C79.6 95.3 79.4 99.2 80.2 100.4C81.0 101.6 84.3 99.6 85.1 100.8C86.0 102.1 85.2 106.8 85.2 108.0" fill="none" stroke="currentColor" stroke-width="1.1" stroke-linecap="round" stroke-linejoin="round"></path><path d="M91.3 62.2C92.2 64.5 93.6 69.6 92.0 72.5C90.4 75.3 83.4 77.1 81.7 79.3C80.0 81.5 81.4 83.5 81.8 85.8C82.2 88.1 85.5 91.3 84.1 93.0C82.7 94.6 75.3 95.5 73.3 95.7C71.2 95.9 72.6 95.5 71.7 94.4C70.8 93.2 69.5 88.5 67.9 88.7C66.3 88.9 64.0 94.3 62.1 95.7C60.2 97.1 57.8 98.4 56.3 97.1C54.8 95.9 53.8 90.6 53.2 88.2C52.7 85.7 55.6 83.4 53.0 82.3C50.4 81.3 39.3 82.3 37.7 81.8C36.1 81.2 43.2 80.6 43.7 79.0C44.2 77.4 42.4 74.2 40.6 72.1C38.8 70.1 33.7 69.0 32.9 66.6C32.1 64.2 35.1 60.4 35.9 57.9C36.6 55.4 37.1 52.9 37.5 51.6C37.8 50.4 36.8 52.2 37.8 50.4C38.8 48.6 42.2 42.7 43.6 40.7C45.0 38.8 44.3 39.5 46.4 38.6C48.5 37.7 54.5 35.6 56.1 35.3C57.7 35.1 54.7 36.8 56.1 36.9C57.6 37.0 61.6 36.3 64.7 36.0C67.8 35.6 71.7 34.1 74.5 35.1C77.4 36.0 81.3 40.6 81.8 41.7C82.2 42.8 76.5 40.5 77.1 41.6C77.7 42.6 84.6 46.1 85.2 47.9C85.8 49.7 80.6 50.7 80.8 52.5C81.0 54.2 84.6 56.7 86.3 58.3C88.1 59.9 90.3 59.8 91.3 62.2Z" fill="var(--s4)" stroke="none" opacity="0.88"></path><path d="M87.1 63.9C87.1 66.1 87.3 65.7 86.4 68.2C85.5 70.8 82.4 76.8 81.4 79.0C80.5 81.2 81.4 80.3 80.6 81.2C79.8 82.2 77.3 82.8 76.4 84.6C75.4 86.4 76.9 90.3 74.8 91.9C72.8 93.5 66.2 93.9 64.2 94.2C62.2 94.5 63.6 93.7 63.0 93.7C62.3 93.8 61.9 94.4 60.3 94.5C58.6 94.6 55.2 94.8 53.0 94.2C50.9 93.7 48.9 92.5 47.2 91.2C45.6 89.8 43.9 88.2 43.3 86.2C42.7 84.3 44.6 81.0 43.4 79.4C42.3 77.8 37.8 78.3 36.2 76.6C34.7 74.9 34.1 71.6 33.9 69.0C33.8 66.4 35.9 62.8 35.4 61.2C34.9 59.7 30.6 60.9 30.9 59.5C31.2 58.1 36.0 54.8 37.3 52.8C38.5 50.8 37.4 49.6 38.4 47.6C39.5 45.6 43.2 42.6 43.7 40.8C44.3 39.0 40.5 37.2 41.9 36.7C43.4 36.2 50.4 38.8 52.6 37.9C54.9 37.0 53.8 32.5 55.6 31.5C57.4 30.5 61.4 31.7 63.5 32.0C65.7 32.3 66.6 33.2 68.4 33.5C70.3 33.9 73.4 33.2 74.8 34.0C76.2 34.8 75.3 36.3 76.8 38.3C78.3 40.3 82.5 44.1 83.6 46.0C84.7 47.9 82.9 48.0 83.4 49.6C83.8 51.1 85.5 52.9 86.1 55.3C86.7 57.7 87.0 61.8 87.1 63.9Z" fill="none" stroke="currentColor" stroke-width="1.5" stroke-linecap="round" stroke-linejoin="round"></path><path d="M30.6 75.1C30.7 74.9 31.9 74.0 31.3 73.6C30.7 73.1 27.8 73.2 27.1 72.5C26.4 71.8 27.0 70.3 27.2 69.4C27.5 68.4 28.5 67.3 28.7 66.7C28.9 66.1 27.8 66.8 28.3 65.8C28.7 64.9 31.0 61.8 31.5 61.0" fill="none" stroke="currentColor" stroke-width="1.4" stroke-linecap="round" stroke-linejoin="round"></path><path d="M87.1 61.7C87.4 61.1 87.5 57.6 88.6 58.4C89.6 59.1 93.3 64.6 93.2 66.2C93.1 67.8 88.3 67.0 88.0 68.0C87.7 68.9 90.9 71.0 91.3 71.8C91.6 72.6 90.9 72.0 90.2 72.7C89.5 73.4 87.6 75.4 87.1 76.0" fill="none" stroke="currentColor" stroke-width="1.4" stroke-linecap="round" stroke-linejoin="round"></path><path d="M34.3 52.7C35.4 52.1 39.7 50.3 41.4 49.1C43.1 47.8 42.7 46.0 44.4 45.4C46.2 44.8 50.7 46.2 51.8 45.5C52.9 44.8 50.3 42.8 51.3 41.3C52.2 39.8 55.5 37.0 57.5 36.6C59.5 36.2 61.6 38.4 63.3 39.0C65.0 39.5 65.9 39.5 68.0 39.6C70.0 39.8 74.0 39.3 75.7 39.8C77.5 40.3 77.2 41.4 78.2 42.9C79.2 44.4 80.5 47.2 81.8 48.7C83.2 50.2 85.6 51.3 86.3 51.9" fill="none" stroke="currentColor" stroke-width="1.3" stroke-linecap="round" stroke-linejoin="round"></path><path d="M45.9 43.6C46.3 44.4 47.4 48.1 48.5 48.9C49.6 49.7 51.7 48.3 52.4 48.1" fill="none" stroke="currentColor" stroke-width="1.8" stroke-linecap="round" stroke-linejoin="round"></path><path d="M65.5 47.0C66.9 46.8 71.6 45.8 73.6 45.5C75.6 45.2 76.7 45.2 77.4 45.1" fill="none" stroke="currentColor" stroke-width="1.8" stroke-linecap="round" stroke-linejoin="round"></path><path d="M51.2 61.2C50.7 61.9 51.4 59.3 51.6 59.5C51.7 59.8 52.7 62.7 52.0 62.7C51.3 62.7 48.0 59.6 47.5 59.4C46.9 59.3 48.6 62.2 48.4 61.8C48.2 61.5 47.4 57.5 46.5 57.2C45.5 56.8 43.2 59.7 42.8 59.6C42.4 59.5 43.5 57.5 44.1 56.5C44.8 55.6 46.5 54.0 46.9 54.0C47.3 53.9 45.9 55.7 46.7 56.1C47.6 56.6 50.8 56.6 52.1 56.5C53.4 56.4 54.8 54.8 54.6 55.6C54.4 56.4 51.7 60.6 51.2 61.2Z" fill="none" stroke="currentColor" stroke-width="1.4" stroke-linecap="round" stroke-linejoin="round"></path><circle cx="49.5" cy="58.0" r="1.8" fill="currentColor"></circle><path d="M76.4 60.4C76.4 60.6 76.9 60.2 76.6 59.9C76.3 59.5 75.3 58.5 74.8 58.4C74.3 58.4 74.6 59.1 73.5 59.8C72.3 60.5 69.4 62.6 68.1 62.7C66.8 62.8 66.2 60.9 65.5 60.4C64.8 59.8 63.4 59.5 64.0 59.2C64.6 58.9 68.2 59.0 69.0 58.5C69.9 57.9 68.6 57.0 69.2 55.9C69.8 54.8 72.0 52.1 72.6 51.8C73.3 51.4 72.6 52.8 73.3 53.8C74.0 54.9 76.4 57.1 76.9 58.1C77.4 59.2 76.5 60.1 76.4 60.4Z" fill="none" stroke="currentColor" stroke-width="1.4" stroke-linecap="round" stroke-linejoin="round"></path><circle cx="71.5" cy="58.0" r="1.8" fill="currentColor"></circle><path d="M63.6 55.5C62.7 56.9 59.2 61.1 58.4 63.7C57.6 66.3 57.9 69.9 58.7 71.1C59.4 72.4 62.4 71.0 63.1 71.0" fill="none" stroke="currentColor" stroke-width="1.5" stroke-linecap="round" stroke-linejoin="round"></path><path d="M67.0 89.3C66.9 90.3 65.8 91.1 65.1 91.9C64.4 92.8 63.8 94.2 62.8 94.4C61.7 94.6 60.1 93.1 58.9 93.1C57.7 93.2 56.2 94.8 55.6 94.7C55.0 94.6 55.4 93.5 55.1 92.6C54.8 91.6 54.0 90.4 53.9 89.0C53.9 87.5 54.5 84.6 54.8 83.9C55.1 83.2 54.8 84.8 55.8 84.7C56.8 84.5 59.7 83.3 60.6 83.1C61.6 82.9 60.8 83.0 61.6 83.4C62.4 83.8 64.7 84.5 65.6 85.5C66.5 86.5 67.1 88.2 67.0 89.3Z" fill="var(--h-ink)" stroke="none"></path><path d="M66.3 88.2C66.5 89.4 67.2 90.1 66.6 91.8C66.0 93.5 63.9 97.6 62.8 98.3C61.7 99.0 61.1 96.6 59.9 96.0C58.7 95.4 56.8 95.0 55.5 94.7C54.3 94.5 52.9 95.7 52.4 94.3C51.8 92.9 52.3 87.4 52.5 86.2C52.7 85.1 52.7 88.5 53.5 87.4C54.4 86.3 56.4 80.2 57.7 79.4C59.0 78.6 60.1 82.3 61.2 82.6C62.4 82.9 64.0 80.9 64.7 81.3C65.4 81.6 65.0 83.6 65.3 84.7C65.5 85.9 66.1 87.0 66.3 88.2Z" fill="none" stroke="currentColor" stroke-width="1.2" stroke-linecap="round" stroke-linejoin="round"></path><path d="M36.9 81.1C36.6 81.9 36.2 83.6 35.9 84.5C35.7 85.4 36.1 86.6 35.6 86.5C35.0 86.4 33.0 84.4 32.5 83.9C32.1 83.4 32.4 84.4 32.8 83.6C33.2 82.7 35.4 79.6 35.1 78.8C34.8 78.1 30.5 78.7 30.9 78.8C31.4 79.0 36.6 79.4 37.6 79.8C38.6 80.1 37.2 80.3 36.9 81.1Z" fill="none" stroke="currentColor" stroke-width="1.3" stroke-linecap="round" stroke-linejoin="round"></path><path d="M88.3 83.6C88.4 84.2 87.7 83.0 87.0 83.3C86.4 83.5 85.3 84.9 84.3 84.9C83.3 84.9 81.4 83.8 81.1 83.3C80.8 82.8 82.7 82.8 82.5 82.1C82.3 81.4 79.3 79.9 79.7 79.2C80.1 78.4 83.9 77.6 85.1 77.6C86.3 77.6 86.3 78.1 86.9 79.1C87.4 80.1 88.3 82.9 88.3 83.6Z" fill="none" stroke="currentColor" stroke-width="1.3" stroke-linecap="round" stroke-linejoin="round"></path><clipPath id="s8"><path d="M112.0 22.0C112.0 23.6 111.6 25.3 110.8 26.8C110.0 28.3 108.8 29.8 107.3 31.0C105.9 32.2 104.0 33.3 102.0 34.1C100.0 34.9 97.7 35.5 95.5 35.8C93.2 36.1 90.8 36.1 88.5 35.8C86.3 35.5 84.0 34.9 82.0 34.1C80.0 33.3 78.1 32.2 76.7 31.0C75.2 29.8 74.0 28.3 73.2 26.8C72.4 25.3 72.0 23.6 72.0 22.0C72.0 20.4 72.4 18.7 73.2 17.2C74.0 15.7 75.2 14.2 76.7 13.0C78.1 11.8 80.0 10.7 82.0 9.9C84.0 9.1 86.3 8.5 88.5 8.2C90.8 7.9 93.2 7.9 95.5 8.2C97.7 8.5 100.0 9.1 102.0 9.9C104.0 10.7 105.9 11.8 107.3 13.0C108.8 14.2 110.0 15.7 110.8 17.2C111.6 18.7 112.0 20.4 112.0 22.0Z"></path></clipPath><g clip-path="url(#s8)" opacity="0.95"><path d="M71.7 7.1C75.7 7.2 106.6 8.0 110.8 8.3C115.0 8.6 117.3 10.0 113.6 10.2C109.8 10.4 77.6 10.1 73.2 10.3C68.7 10.4 65.4 10.8 69.1 11.3C72.9 11.8 106.3 14.9 110.7 15.2C115.1 15.4 116.8 14.1 112.8 14.1C108.7 14.1 74.2 14.8 70.3 15.1C66.5 15.4 70.3 16.7 74.3 17.1C78.2 17.5 106.5 19.1 110.1 19.3C113.7 19.6 113.9 19.6 110.1 19.6C106.3 19.5 75.4 19.0 71.8 19.1C68.1 19.2 69.6 20.0 73.8 20.4C77.9 20.9 109.2 23.5 113.0 23.8C116.8 24.1 115.9 23.2 112.1 23.2C108.3 23.2 78.8 23.5 75.0 23.6C71.1 23.8 70.4 24.3 73.8 24.5C77.2 24.7 105.2 25.3 109.0 25.6C112.9 25.9 116.0 26.9 112.3 27.3C108.6 27.7 76.3 29.1 72.0 29.5C67.7 29.9 65.3 30.8 69.2 31.0C73.0 31.2 106.3 31.3 110.7 31.5C115.1 31.7 117.3 32.7 113.1 33.0C109.0 33.3 73.2 34.4 69.1 34.4C65.0 34.5 67.7 33.1 72.1 33.2C76.6 33.4 109.8 35.9 114.0 36.2" fill="none" stroke="currentColor" stroke-width="1.3" stroke-linecap="round"></path></g><path d="M115.7 21.0C117.6 22.8 115.2 28.0 114.5 29.8C113.7 31.5 112.3 32.3 111.4 31.4C110.4 30.4 111.7 22.4 108.7 24.0C105.7 25.6 96.8 39.8 93.2 41.0C89.7 42.2 89.6 31.8 87.6 31.3C85.7 30.9 83.6 38.3 81.6 38.5C79.6 38.7 76.2 33.5 75.5 32.6C74.8 31.6 77.9 34.1 77.2 32.7C76.4 31.3 70.5 28.6 71.0 24.1C71.6 19.6 80.6 7.2 80.4 5.6C80.2 4.0 69.0 12.4 70.1 14.5C71.2 16.5 84.3 16.6 87.1 17.9C89.9 19.1 85.1 23.4 87.0 21.9C88.8 20.5 95.7 12.3 98.2 9.2C100.7 6.2 101.2 2.6 102.1 3.8C103.0 4.9 103.4 13.6 103.6 16.2C103.8 18.7 101.1 18.4 103.2 19.2C105.2 20.0 113.8 19.3 115.7 21.0Z" fill="none" stroke="currentColor" stroke-width="1.2" stroke-linecap="round" stroke-linejoin="round"></path><text x="84" y="34" font-family="Caveat, cursive" font-size="34" font-weight="600" fill="var(--red)" transform="rotate(8 84 34)">!!</text><path d="M46.0 30.0C45.6 28.2 43.7 22.3 43.6 19.6C43.6 16.8 46.2 15.1 46.0 13.4C45.7 11.6 42.9 9.8 42.3 9.1" fill="none" stroke="currentColor" stroke-width="1.2" stroke-linecap="round" stroke-linejoin="round"></path><path d="M60.8 27.8C60.1 26.7 56.2 24.0 56.7 21.3C57.1 18.5 63.6 14.0 63.5 11.4C63.5 8.8 57.5 6.7 56.3 5.8" fill="none" stroke="currentColor" stroke-width="1.2" stroke-linecap="round" stroke-linejoin="round"></path><path d="M78.2 24.9C77.0 24.2 70.6 22.9 70.6 20.5C70.7 18.0 78.0 12.4 78.5 10.3C79.1 8.2 74.6 8.3 73.8 7.9" fill="none" stroke="currentColor" stroke-width="1.2" stroke-linecap="round" stroke-linejoin="round"></path></svg>
