<svg viewBox="0 0 120 120" aria-hidden="true" focusable="false"><path d="M115.4 66.0C115.2 66.9 115.6 66.1 114.6 67.3C113.7 68.5 110.0 71.1 109.8 73.2C109.6 75.2 112.8 79.0 113.4 79.5C113.9 80.1 113.9 75.9 113.2 76.7C112.5 77.5 110.3 82.1 109.3 84.3C108.2 86.5 106.3 89.0 106.6 89.9C106.9 90.8 111.5 89.7 111.0 89.7C110.5 89.6 105.0 88.3 103.7 89.4C102.4 90.5 103.2 94.5 103.3 96.5C103.3 98.4 105.4 99.7 104.1 101.0C102.7 102.3 96.3 104.6 95.2 104.4C94.0 104.3 97.4 100.0 97.0 100.0C96.6 100.0 94.4 103.3 92.7 104.4C90.9 105.6 88.4 105.0 86.6 106.8C84.8 108.7 83.4 115.0 81.8 115.6C80.2 116.1 77.2 110.2 77.1 110.0C77.0 109.9 81.9 113.3 81.1 114.6C80.2 115.9 75.0 117.1 72.0 117.6C69.1 118.2 64.2 118.0 63.2 117.8C62.2 117.7 66.8 117.1 65.9 116.8C65.0 116.5 58.9 116.5 57.6 115.9C56.3 115.3 58.4 113.2 57.9 113.2C57.4 113.2 56.6 115.2 54.5 115.7C52.5 116.2 47.9 117.3 45.7 116.1C43.6 114.9 43.2 109.5 41.7 108.4C40.1 107.4 37.4 109.8 36.3 109.9C35.2 110.0 35.6 109.0 35.2 109.0C34.8 109.1 34.4 110.6 33.8 110.4C33.3 110.2 33.2 109.5 31.9 107.9C30.7 106.3 27.4 101.4 26.4 100.8C25.4 100.2 26.4 104.6 26.0 104.2C25.6 103.8 24.8 99.3 24.1 98.2C23.3 97.1 22.2 98.7 21.4 97.8C20.5 96.9 20.8 94.2 19.1 92.8C17.4 91.5 12.7 90.8 11.2 89.5C9.7 88.2 9.6 86.1 10.1 85.0C10.7 83.8 14.3 83.9 14.3 82.5C14.3 81.2 11.7 77.9 10.0 76.9C8.3 76.0 5.1 77.3 4.0 76.9C2.9 76.5 3.2 75.7 3.4 74.4C3.5 73.0 3.7 70.5 5.2 68.7C6.6 67.0 12.7 65.3 12.2 63.8C11.7 62.2 3.5 61.5 2.4 59.6C1.3 57.8 4.4 54.4 5.4 52.7C6.5 51.0 7.8 50.5 8.7 49.6C9.7 48.6 11.1 47.9 11.1 47.0C11.0 46.1 8.9 44.9 8.6 44.2C8.2 43.5 7.8 43.8 9.1 43.0C10.5 42.2 16.1 39.7 16.8 39.3C17.5 38.8 12.6 40.4 13.2 40.2C13.8 39.9 19.4 38.9 20.5 38.0C21.6 37.2 19.4 37.5 19.7 35.1C19.9 32.7 20.5 26.4 22.0 23.9C23.4 21.3 27.8 19.6 28.2 19.8C28.7 20.0 23.5 24.2 24.8 24.9C26.2 25.5 34.9 25.0 36.2 23.6C37.6 22.1 32.6 17.1 32.7 16.1C32.7 15.2 34.3 16.8 36.3 18.0C38.3 19.1 42.8 24.0 44.8 22.9C46.8 21.7 47.1 12.2 48.5 11.0C49.9 9.9 52.5 16.3 53.3 16.1C54.2 15.8 51.8 11.3 53.6 9.6C55.4 7.9 61.5 5.2 64.0 5.9C66.6 6.6 68.3 11.8 69.0 13.6C69.7 15.3 67.4 16.3 68.3 16.4C69.2 16.6 74.0 14.0 74.4 14.5C74.7 14.9 69.2 18.5 70.3 19.0C71.3 19.4 78.3 17.5 80.6 17.2C82.9 16.9 83.4 16.3 84.2 17.4C85.0 18.5 84.6 23.1 85.5 23.9C86.3 24.6 88.2 21.6 89.5 21.7C90.9 21.7 92.2 23.6 93.3 24.0C94.4 24.5 95.9 23.3 96.2 24.4C96.5 25.4 94.8 28.9 95.0 30.4C95.3 32.0 95.9 33.4 97.9 33.9C99.8 34.3 105.9 31.9 106.6 32.9C107.3 33.9 101.8 38.6 102.0 40.0C102.2 41.3 106.4 40.2 107.8 40.9C109.1 41.6 109.4 43.5 110.1 44.3C110.7 45.2 111.0 44.6 111.6 46.0C112.2 47.4 113.0 51.6 113.5 52.7C114.1 53.8 114.4 51.0 114.9 52.5C115.3 53.9 116.1 59.3 116.2 61.6C116.3 63.8 115.7 65.0 115.4 66.0Z" fill="none" stroke="var(--w-sage)" stroke-width="3.5" stroke-linecap="round" stroke-linejoin="round"></path><path d="M106.5 55.5C106.3 57.6 106.2 55.6 105.4 57.7C104.5 59.8 102.4 67.4 101.5 68.0C100.6 68.7 100.3 61.4 99.7 61.5C99.0 61.6 97.6 66.3 97.6 68.6C97.7 71.0 100.9 73.9 100.0 75.5C99.0 77.1 94.1 77.9 91.7 78.4C89.3 78.9 85.6 77.3 85.5 78.5C85.3 79.8 91.8 84.3 90.8 85.8C89.8 87.3 81.8 88.2 79.4 87.5C76.9 86.8 76.6 82.0 76.1 81.5C75.6 80.9 77.1 82.6 76.2 84.1C75.3 85.5 72.5 90.2 70.7 90.0C68.9 89.8 68.4 81.1 65.6 82.9C62.8 84.7 56.4 100.0 53.9 100.7C51.4 101.3 50.8 88.2 50.5 86.9C50.2 85.7 53.9 93.0 52.1 93.0C50.4 93.0 42.4 87.4 40.0 86.7C37.7 86.0 37.7 89.4 38.0 89.1C38.3 88.8 43.6 86.6 42.0 84.9C40.3 83.1 29.3 80.9 27.9 78.5C26.5 76.2 34.0 71.6 33.7 70.7C33.4 69.8 26.4 74.2 25.9 73.1C25.4 72.1 32.3 66.7 30.7 64.5C29.0 62.2 17.5 61.4 16.1 59.8C14.6 58.3 21.7 56.1 22.1 55.1C22.5 54.2 18.2 56.2 18.6 54.2C19.1 52.1 24.4 44.5 24.8 42.8C25.1 41.1 20.5 45.6 20.7 43.9C20.8 42.1 25.4 33.6 25.8 32.2C26.1 30.9 20.8 35.5 22.6 35.7C24.4 35.8 34.6 35.1 36.5 33.2C38.4 31.3 34.5 25.1 34.2 24.1C33.9 23.1 34.1 27.6 34.8 27.2C35.6 26.8 35.8 22.7 38.4 21.8C41.0 20.9 48.8 22.1 50.4 22.0C52.0 21.9 49.7 22.1 48.2 21.3C46.6 20.5 40.4 18.8 41.1 17.3C41.8 15.7 48.1 12.9 52.4 11.8C56.7 10.8 64.6 11.1 66.8 11.0C69.1 10.9 64.2 9.9 65.8 11.1C67.4 12.2 73.4 18.1 76.6 18.0C79.7 17.9 84.6 10.5 84.5 10.2C84.5 9.9 75.7 14.6 76.3 16.3C76.8 18.0 85.8 19.7 87.7 20.4C89.6 21.2 87.2 19.7 87.6 20.8C88.0 22.0 89.1 25.8 90.4 27.4C91.7 29.0 93.9 29.0 95.3 30.5C96.6 31.9 97.6 35.3 98.5 35.9C99.3 36.6 99.6 34.0 100.4 34.6C101.3 35.2 102.5 37.9 103.5 39.6C104.5 41.4 106.0 42.4 106.5 45.0C107.0 47.7 106.7 53.3 106.5 55.5Z" fill="var(--h-ink)" stroke="none" opacity="0.95"></path><path d="M101.2 46.4C102.2 47.8 107.0 52.1 106.6 54.5C106.3 56.9 100.4 59.8 98.9 60.8C97.4 61.7 98.7 58.5 97.7 60.1C96.8 61.8 94.5 68.4 93.2 70.4C91.8 72.4 90.3 71.4 89.9 72.4C89.5 73.4 90.5 74.8 90.7 76.4C90.8 77.9 91.2 79.8 90.7 81.8C90.2 83.7 90.1 88.4 87.6 88.1C85.0 87.9 77.9 81.2 75.6 80.2C73.2 79.3 73.4 82.1 73.2 82.4C73.0 82.7 73.5 80.5 74.3 82.2C75.0 83.9 77.2 92.1 77.8 92.4C78.4 92.6 79.4 84.5 77.7 83.7C76.0 83.0 70.5 88.7 67.4 87.9C64.3 87.1 59.9 79.1 59.1 78.7C58.3 78.3 62.7 82.8 62.7 85.5C62.6 88.2 61.4 92.9 58.9 94.7C56.5 96.5 49.7 97.6 48.0 96.2C46.4 94.7 48.9 87.6 49.1 86.0C49.3 84.5 50.4 87.7 49.1 87.0C47.9 86.3 42.4 81.6 41.8 81.7C41.2 81.7 44.8 87.5 45.7 87.3C46.5 87.1 49.3 81.7 47.1 80.5C45.0 79.4 35.7 80.7 32.8 80.4C29.9 80.1 30.6 80.4 29.8 78.6C29.0 76.7 28.1 70.6 27.8 69.1C27.5 67.7 29.6 70.4 27.9 69.6C26.3 68.8 19.5 65.4 17.9 64.5C16.3 63.6 18.1 66.5 18.6 64.2C19.1 61.9 21.3 52.1 20.8 50.5C20.4 49.0 17.6 54.9 15.8 54.6C14.0 54.4 9.0 51.4 10.0 49.0C10.9 46.7 19.9 42.6 21.6 40.4C23.2 38.2 19.4 37.7 19.6 35.8C19.8 34.0 21.3 30.3 22.9 29.2C24.4 28.0 28.6 28.6 29.2 28.9C29.8 29.2 26.5 32.0 26.3 31.1C26.2 30.2 27.0 25.3 28.3 23.7C29.6 22.1 32.8 22.4 34.3 21.4C35.8 20.4 36.2 18.6 37.1 17.8C38.0 16.9 37.5 16.3 39.8 16.5C42.1 16.8 50.3 18.8 51.0 19.1C51.6 19.5 43.2 19.7 43.7 18.6C44.2 17.6 52.5 14.1 54.0 13.1C55.5 12.0 50.2 11.6 52.7 12.2C55.3 12.9 66.4 17.3 69.1 17.2C71.9 17.1 69.5 12.7 69.3 11.8C69.2 10.9 68.0 11.0 68.4 11.7C68.8 12.5 72.5 15.3 71.8 16.2C71.1 17.1 62.7 16.7 64.3 17.1C65.8 17.5 77.9 19.3 80.8 18.4C83.6 17.5 81.6 11.6 81.4 11.8C81.1 12.0 79.5 18.1 79.5 19.6C79.5 21.1 80.4 20.3 81.2 20.9C81.9 21.4 82.9 21.4 84.3 22.9C85.6 24.3 86.5 29.0 89.1 29.4C91.8 29.9 98.6 24.6 100.2 25.7C101.8 26.7 97.7 33.8 98.8 35.8C99.8 37.8 105.9 37.5 106.4 37.7C106.9 37.9 102.6 35.4 101.7 36.8C100.8 38.2 101.2 44.5 101.1 46.1C101.0 47.7 100.3 45.0 101.2 46.4Z" fill="none" stroke="currentColor" stroke-width="1.5" stroke-linecap="round" stroke-linejoin="round"></path><path d="M95.2 62.4C95.0 63.7 89.8 68.6 88.0 71.0C86.2 73.4 84.4 74.7 84.4 76.7C84.4 78.7 88.6 82.2 87.9 83.2C87.2 84.1 82.4 80.3 80.2 82.5C78.0 84.6 76.2 94.1 74.6 95.9C73.1 97.7 73.7 92.6 71.1 93.3C68.5 94.0 60.7 99.7 58.8 100.0C57.0 100.3 60.7 96.1 59.9 95.0C59.2 94.0 56.0 93.9 54.4 93.9C52.7 93.8 52.3 95.5 50.0 94.9C47.7 94.3 42.3 91.8 40.4 90.2C38.6 88.6 39.1 86.6 38.9 85.1C38.8 83.6 40.6 82.9 39.6 81.1C38.7 79.3 33.8 76.8 33.2 74.2C32.6 71.6 35.7 68.3 36.0 65.7C36.4 63.0 35.1 60.1 35.3 58.2C35.6 56.2 36.3 56.1 37.7 53.8C39.1 51.4 41.9 45.9 43.7 43.8C45.4 41.8 46.4 42.4 48.1 41.4C49.9 40.4 53.8 39.1 54.1 37.8C54.5 36.4 48.7 34.9 50.0 33.2C51.4 31.6 59.7 27.4 62.3 27.9C64.9 28.3 64.0 34.7 65.6 35.8C67.2 37.0 70.3 33.9 71.6 34.6C72.9 35.3 72.9 38.5 73.4 39.8C73.9 41.2 73.5 40.6 74.7 42.7C75.8 44.9 78.2 50.9 80.3 52.9C82.4 54.9 85.7 53.1 87.2 54.8C88.7 56.5 87.8 61.9 89.1 63.2C90.5 64.4 95.4 61.0 95.2 62.4Z" fill="var(--s7)" stroke="none" opacity="0.88"></path><path d="M85.5 67.8C85.6 69.9 88.3 68.0 88.1 69.6C88.0 71.2 85.6 75.0 84.5 77.4C83.4 79.7 82.6 82.5 81.3 83.8C80.0 85.2 77.9 84.2 76.7 85.3C75.4 86.4 75.5 89.4 74.0 90.5C72.4 91.7 69.2 91.6 67.3 92.0C65.4 92.4 64.7 92.6 62.5 93.0C60.2 93.3 55.5 94.3 53.8 94.1C52.2 94.0 53.7 92.6 52.4 92.2C51.1 91.8 47.8 92.9 46.2 91.8C44.6 90.7 44.1 87.5 42.8 85.8C41.5 84.0 39.7 83.2 38.4 81.4C37.1 79.6 36.0 76.5 35.0 74.7C33.9 72.9 32.3 72.7 32.1 70.6C31.8 68.6 33.1 65.2 33.4 62.5C33.6 59.8 33.4 55.8 33.4 54.4C33.5 53.0 33.0 55.9 33.7 54.3C34.4 52.7 36.4 47.3 37.7 44.9C38.9 42.5 39.6 41.2 41.4 39.9C43.1 38.6 46.2 37.8 48.3 37.1C50.5 36.4 53.1 36.1 54.2 35.7C55.3 35.2 53.3 34.6 54.9 34.5C56.4 34.4 60.7 34.6 63.4 35.0C66.2 35.4 69.0 36.8 71.3 37.0C73.6 37.3 76.0 35.7 77.2 36.6C78.4 37.5 77.6 41.0 78.5 42.5C79.4 43.9 81.8 43.6 82.6 45.6C83.3 47.5 82.3 52.0 83.0 54.0C83.8 56.0 86.7 55.2 87.1 57.5C87.5 59.8 85.3 65.8 85.5 67.8Z" fill="none" stroke="currentColor" stroke-width="1.5" stroke-linecap="round" stroke-linejoin="round"></path><path d="M32.8 74.8C32.4 74.4 31.3 73.1 30.5 72.4C29.8 71.8 28.9 71.9 28.4 71.0C27.9 70.0 28.2 67.3 27.6 66.5C26.9 65.8 24.0 66.6 24.8 66.4C25.6 66.2 30.7 66.7 32.3 65.4C33.9 64.2 33.9 59.9 34.3 58.8" fill="none" stroke="currentColor" stroke-width="1.4" stroke-linecap="round" stroke-linejoin="round"></path><path d="M89.8 60.4C89.7 60.7 89.0 61.0 89.1 61.9C89.3 62.9 90.5 65.4 90.8 66.2C91.1 66.9 90.6 65.1 90.7 66.6C90.8 68.0 91.7 73.0 91.5 74.6C91.2 76.3 90.2 76.5 89.5 76.3C88.7 76.0 87.3 73.9 86.9 73.4" fill="none" stroke="currentColor" stroke-width="1.4" stroke-linecap="round" stroke-linejoin="round"></path><path d="M44.5 46.1C44.7 46.1 45.0 46.2 45.4 46.4C45.9 46.6 46.7 46.9 47.4 47.4C48.1 47.8 48.3 48.7 49.6 49.0C51.0 49.3 54.4 49.0 55.3 49.0" fill="none" stroke="currentColor" stroke-width="1.8" stroke-linecap="round" stroke-linejoin="round"></path><path d="M64.6 50.4C64.9 50.1 64.7 49.4 66.1 48.8C67.5 48.2 72.3 47.2 73.2 46.8C74.1 46.5 71.1 46.8 71.4 46.6C71.7 46.5 74.5 46.0 75.1 45.9" fill="none" stroke="currentColor" stroke-width="1.8" stroke-linecap="round" stroke-linejoin="round"></path><path d="M54.6 56.4C55.1 56.9 57.4 59.8 56.7 60.6C56.0 61.4 51.3 60.9 50.3 61.1C49.3 61.4 51.2 62.3 50.9 62.2C50.6 62.1 49.5 61.0 48.4 60.3C47.2 59.6 44.6 58.1 43.9 58.0C43.3 57.9 45.0 60.2 44.6 59.7C44.1 59.3 40.7 56.0 41.2 55.4C41.8 54.7 46.7 56.0 48.1 55.6C49.6 55.3 49.7 53.5 49.9 53.2C50.1 52.9 48.8 53.2 49.4 53.9C50.0 54.5 52.5 56.7 53.4 57.2C54.3 57.6 54.0 55.8 54.6 56.4Z" fill="none" stroke="currentColor" stroke-width="1.4" stroke-linecap="round" stroke-linejoin="round"></path><circle cx="49.5" cy="58.0" r="1.8" fill="currentColor"></circle><path d="M75.7 58.5C76.1 59.0 76.5 59.2 76.5 59.7C76.5 60.1 76.6 60.3 75.9 61.0C75.1 61.8 73.4 64.2 71.8 64.1C70.3 64.1 67.5 61.4 66.6 60.6C65.8 59.8 66.7 59.8 66.9 59.5C67.0 59.1 67.7 59.3 67.7 58.6C67.7 57.8 66.9 55.3 66.8 54.9C66.8 54.4 66.8 55.9 67.4 56.0C68.0 56.2 69.9 55.8 70.5 55.7C71.1 55.7 70.2 55.5 70.8 55.7C71.5 55.9 73.7 56.6 74.5 57.1C75.3 57.5 75.4 58.1 75.7 58.5Z" fill="none" stroke="currentColor" stroke-width="1.4" stroke-linecap="round" stroke-linejoin="round"></path><circle cx="71.5" cy="58.0" r="1.8" fill="currentColor"></circle><path d="M59.2 55.7C59.2 56.3 59.3 57.8 59.2 58.8C59.1 59.9 58.8 61.0 58.5 62.0C58.2 63.1 57.6 64.0 57.5 65.0C57.4 66.0 57.3 67.2 57.9 67.9C58.5 68.7 60.3 69.2 60.8 69.5" fill="none" stroke="currentColor" stroke-width="1.5" stroke-linecap="round" stroke-linejoin="round"></path><path d="M66.7 87.8C66.7 88.8 65.8 92.3 65.3 93.5C64.9 94.6 64.9 94.2 64.0 94.5C63.2 94.9 61.5 95.6 60.2 95.7C58.9 95.9 57.2 95.7 56.3 95.4C55.3 95.1 54.8 94.9 54.3 93.7C53.8 92.5 53.3 89.5 53.5 88.2C53.6 86.9 54.8 86.5 55.4 85.8C56.0 85.1 56.5 84.6 57.2 84.1C58.0 83.7 58.6 83.1 59.9 83.0C61.1 82.9 63.6 83.0 64.6 83.7C65.5 84.4 65.1 86.4 65.4 87.1C65.8 87.7 66.8 86.7 66.7 87.8Z" fill="var(--h-ink)" stroke="none"></path><path d="M70.6 87.7C71.0 88.5 65.9 90.9 64.6 92.2C63.3 93.5 63.5 94.8 62.9 95.6C62.4 96.3 62.4 96.5 61.2 96.7C60.1 96.8 57.4 97.0 56.3 96.5C55.1 96.0 54.7 94.8 54.4 93.5C54.0 92.1 54.6 89.8 54.1 88.4C53.5 87.0 50.8 86.3 51.0 85.3C51.2 84.3 53.7 82.7 55.3 82.4C57.0 82.2 60.1 83.8 61.1 83.7C62.1 83.5 61.2 80.9 61.4 81.5C61.5 82.2 60.4 86.6 62.0 87.6C63.5 88.7 70.1 87.0 70.6 87.7Z" fill="none" stroke="currentColor" stroke-width="1.2" stroke-linecap="round" stroke-linejoin="round"></path><circle cx="34.0" cy="78.0" r="1.6" fill="currentColor"></circle><circle cx="86.0" cy="78.0" r="1.6" fill="currentColor"></circle><clipPath id="s25"><path d="M112.0 22.0C112.0 23.6 111.6 25.3 110.8 26.8C110.0 28.3 108.8 29.8 107.3 31.0C105.9 32.2 104.0 33.3 102.0 34.1C100.0 34.9 97.7 35.5 95.5 35.8C93.2 36.1 90.8 36.1 88.5 35.8C86.3 35.5 84.0 34.9 82.0 34.1C80.0 33.3 78.1 32.2 76.7 31.0C75.2 29.8 74.0 28.3 73.2 26.8C72.4 25.3 72.0 23.6 72.0 22.0C72.0 20.4 72.4 18.7 73.2 17.2C74.0 15.7 75.2 14.2 76.7 13.0C78.1 11.8 80.0 10.7 82.0 9.9C84.0 9.1 86.3 8.5 88.5 8.2C90.8 7.9 93.2 7.9 95.5 8.2C97.7 8.5 100.0 9.1 102.0 9.9C104.0 10.7 105.9 11.8 107.3 13.0C108.8 14.2 110.0 15.7 110.8 17.2C111.6 18.7 112.0 20.4 112.0 22.0Z"></path></clipPath><g clip-path="url(#s25)" opacity="0.95"><path d="M74.2 9.4C77.9 9.4 107.7 8.7 111.2 8.8C114.7 8.9 112.9 10.4 109.1 10.6C105.4 10.9 77.3 11.3 73.5 11.4C69.7 11.6 67.9 11.7 71.5 12.1C75.1 12.5 104.9 14.9 109.3 15.1C113.6 15.3 118.2 13.9 114.7 14.0C111.2 14.1 78.1 15.7 74.0 16.1C70.0 16.5 70.4 17.8 74.1 18.0C77.7 18.3 106.6 18.3 110.4 18.5C114.2 18.6 116.3 19.5 112.5 19.7C108.6 20.0 75.9 20.6 72.0 20.9C68.1 21.2 69.5 22.4 73.8 22.7C78.0 22.9 110.9 23.4 114.8 23.4C118.7 23.4 117.0 22.6 112.5 22.6C108.0 22.6 74.2 23.0 69.9 23.2C65.6 23.5 65.1 25.3 69.4 25.5C73.8 25.7 109.1 25.3 113.2 25.5C117.3 25.7 114.3 26.9 110.5 27.3C106.6 27.7 78.9 29.5 74.9 29.7C71.0 29.9 67.2 29.1 70.9 29.2C74.6 29.4 107.7 30.7 111.5 31.0C115.4 31.3 113.1 32.0 109.1 32.3C105.1 32.7 75.0 34.5 71.3 34.6C67.6 34.8 68.2 33.9 72.1 34.0C75.9 34.1 106.0 35.2 109.8 35.4" fill="none" stroke="currentColor" stroke-width="1.3" stroke-linecap="round"></path></g><path d="M102.6 24.6C105.1 26.7 114.3 32.8 115.2 34.3C116.1 35.7 110.0 34.3 108.1 33.4C106.2 32.5 105.5 29.9 103.8 29.0C102.1 28.1 98.1 27.4 97.8 28.1C97.5 28.7 101.3 31.3 102.2 33.0C103.0 34.8 104.9 37.6 102.9 38.5C100.9 39.4 92.8 38.6 90.1 38.5C87.5 38.5 89.2 40.5 87.1 38.3C84.9 36.1 80.3 26.5 77.3 25.2C74.4 23.9 69.7 31.3 69.3 30.6C68.8 29.8 74.6 20.7 74.7 20.6C74.9 20.6 69.5 30.7 70.2 30.5C70.9 30.2 77.1 21.8 79.0 19.3C80.9 16.8 80.5 18.2 81.7 15.6C82.9 12.9 85.6 3.9 86.2 3.6C86.8 3.2 83.7 12.5 85.2 13.5C86.8 14.4 94.4 10.7 95.5 9.4C96.6 8.0 92.5 6.1 91.9 5.2C91.3 4.3 90.8 3.1 91.9 4.0C92.9 4.9 97.1 8.5 98.4 10.5C99.6 12.6 97.8 14.7 99.6 16.3C101.4 17.8 109.1 18.8 109.3 19.7C109.4 20.6 101.7 20.8 100.6 21.7C99.5 22.5 100.2 22.5 102.6 24.6Z" fill="none" stroke="currentColor" stroke-width="1.2" stroke-linecap="round" stroke-linejoin="round"></path><text x="84" y="34" font-family="Caveat, cursive" font-size="34" font-weight="600" fill="var(--red)" transform="rotate(8 84 34)">!!</text><path d="M43.3 26.7C42.7 26.6 39.8 26.9 39.3 25.7C38.8 24.5 39.9 21.3 40.5 19.5C41.1 17.6 41.9 15.7 42.9 14.5C43.8 13.3 46.0 13.3 46.0 12.4C46.1 11.5 43.9 10.1 43.2 9.0C42.5 8.0 42.1 6.7 41.9 6.2" fill="none" stroke="currentColor" stroke-width="1.2" stroke-linecap="round" stroke-linejoin="round"></path><path d="M58.2 28.7C58.5 28.0 59.9 25.8 59.7 24.4C59.5 23.0 57.0 21.5 57.0 20.2C57.0 18.8 59.1 17.7 59.8 16.5C60.4 15.3 60.7 14.5 60.8 13.1C61.0 11.6 61.4 8.7 60.8 7.8C60.1 7.0 57.5 7.8 56.9 7.8" fill="none" stroke="currentColor" stroke-width="1.2" stroke-linecap="round" stroke-linejoin="round"></path><path d="M76.6 29.8C76.2 28.4 74.6 22.9 73.9 21.4C73.2 20.0 71.9 22.1 72.2 21.1C72.5 20.0 74.8 16.5 75.7 15.3C76.6 14.1 77.2 15.2 77.7 13.9C78.2 12.5 79.6 8.7 78.7 6.9C77.7 5.1 73.1 3.9 71.9 3.3" fill="none" stroke="currentColor" stroke-width="1.2" stroke-linecap="round" stroke-linejoin="round"></path></svg>
