<svg viewBox="0 0 120 120" aria-hidden="true" focusable="false"><path d="M13.2 10.7C14.6 9.8 18.2 14.0 21.5 14.1C24.7 14.1 30.4 11.3 32.7 11.0C35.0 10.7 33.0 12.5 35.2 12.2C37.5 11.9 42.8 8.7 46.1 9.2C49.5 9.7 52.2 14.4 55.1 15.3C58.1 16.1 60.7 15.0 63.7 14.4C66.6 13.7 70.2 11.8 72.9 11.2C75.7 10.6 77.8 10.8 80.2 10.9C82.7 11.0 84.6 11.4 87.5 11.7C90.4 12.0 93.9 12.7 97.6 12.6C101.2 12.5 107.9 9.7 109.5 11.1C111.2 12.5 107.8 17.4 107.7 20.9C107.6 24.3 108.7 28.9 108.8 31.6C108.8 34.4 108.4 35.2 108.0 37.3C107.6 39.3 106.9 41.2 106.5 43.9C106.2 46.6 105.3 50.8 105.9 53.7C106.6 56.7 109.7 59.1 110.4 61.5C111.1 63.9 110.4 65.9 110.1 68.1C109.9 70.2 109.3 71.6 108.9 74.3C108.5 77.0 107.9 80.5 107.9 84.2C107.9 87.8 109.0 93.0 108.8 96.1C108.6 99.2 106.4 100.6 106.8 102.6C107.2 104.6 111.9 107.5 111.3 108.2C110.6 108.9 106.0 106.7 102.9 107.0C99.7 107.4 95.5 109.9 92.6 110.4C89.7 110.8 88.2 110.3 85.5 109.9C82.8 109.5 79.6 108.3 76.5 108.0C73.3 107.7 68.9 108.1 66.6 108.1C64.4 108.1 65.3 107.7 63.0 108.0C60.7 108.3 55.8 109.7 52.9 110.0C50.0 110.2 48.3 109.7 45.7 109.2C43.1 108.7 40.5 107.2 37.3 107.0C34.2 106.9 29.7 108.2 26.9 108.4C24.0 108.7 22.6 107.9 20.3 108.3C17.9 108.6 14.0 111.3 12.6 110.4C11.1 109.4 11.3 105.4 11.5 102.5C11.8 99.6 13.5 96.5 14.2 93.1C14.8 89.7 15.9 85.0 15.6 82.3C15.2 79.6 12.8 79.0 12.2 76.9C11.5 74.9 11.7 72.1 11.6 70.1C11.6 68.1 11.9 68.3 12.0 64.9C12.1 61.5 12.3 52.7 12.2 49.6C12.2 46.6 11.3 48.6 11.6 46.5C11.9 44.4 13.8 40.2 14.0 37.0C14.3 33.8 13.1 30.1 12.9 27.2C12.7 24.3 12.7 22.3 12.8 19.5C12.8 16.8 11.7 11.6 13.2 10.7Z" fill="var(--w-gray)" stroke="none"></path><path d="M87.6 65.4C87.6 69.2 85.9 74.5 86.0 77.4C86.1 80.3 88.2 80.9 88.3 83.0C88.3 85.0 87.3 88.0 86.3 89.7C85.3 91.3 83.3 92.2 82.2 92.6C81.1 93.1 80.9 92.1 79.8 92.4C78.7 92.8 77.3 93.6 75.6 94.5C73.9 95.4 72.5 97.8 69.4 97.8C66.3 97.9 60.2 95.1 57.0 94.9C53.8 94.7 52.5 97.1 50.5 96.7C48.4 96.3 46.3 93.5 44.8 92.5C43.4 91.4 43.0 91.3 41.9 90.5C40.7 89.7 38.1 88.7 37.8 87.5C37.5 86.3 40.2 84.8 39.9 83.3C39.7 81.7 37.2 81.1 36.2 78.1C35.1 75.0 33.2 68.8 33.7 64.9C34.3 60.9 38.5 56.8 39.3 54.2C40.1 51.6 38.2 50.7 38.5 49.4C38.8 48.1 40.0 47.9 41.0 46.1C41.9 44.3 43.6 39.8 44.2 38.5C44.7 37.2 43.5 39.1 44.2 38.3C44.8 37.4 46.4 34.2 48.2 33.5C49.9 32.7 51.3 33.8 54.8 33.8C58.3 33.7 65.7 33.0 69.0 33.2C72.4 33.4 73.4 34.5 74.9 35.0C76.4 35.4 76.8 35.4 78.1 36.1C79.4 36.9 81.4 38.5 82.7 39.3C83.9 40.2 85.0 39.7 85.8 41.2C86.6 42.8 87.4 46.4 87.4 48.6C87.4 50.8 85.9 51.7 85.9 54.5C85.9 57.3 87.5 61.6 87.6 65.4Z" fill="var(--s3)" stroke="none" opacity="0.88"></path><path d="M85.1 65.4C85.2 67.3 85.7 68.5 85.9 70.2C86.0 71.9 86.5 73.5 86.1 75.6C85.8 77.7 84.3 81.2 83.8 82.9C83.4 84.6 84.3 84.7 83.7 85.9C83.0 87.1 81.0 89.1 79.9 90.3C78.9 91.4 78.5 92.1 77.4 92.5C76.2 93.0 75.1 92.5 73.1 92.9C71.2 93.3 67.6 94.8 65.4 95.0C63.3 95.2 62.4 94.2 60.3 94.2C58.2 94.2 55.1 94.9 52.8 95.0C50.6 95.0 48.4 94.9 46.6 94.5C44.9 94.1 43.9 93.1 42.5 92.4C41.2 91.7 39.6 91.2 38.6 90.4C37.7 89.5 37.6 88.6 36.8 87.1C36.1 85.7 34.7 83.7 34.2 81.9C33.7 80.0 34.0 77.9 33.9 76.0C33.7 74.1 33.1 72.7 33.2 70.6C33.4 68.6 34.7 66.0 34.9 63.7C35.1 61.5 34.5 59.1 34.5 57.2C34.5 55.3 34.6 54.3 34.8 52.3C35.0 50.4 35.2 47.2 35.6 45.4C35.9 43.7 36.7 43.2 37.0 41.7C37.4 40.2 36.3 37.5 37.6 36.4C39.0 35.4 43.2 36.0 45.0 35.5C46.7 34.9 46.7 33.9 48.1 33.3C49.6 32.8 51.5 32.5 53.6 32.2C55.7 31.9 58.4 31.3 60.7 31.4C63.0 31.6 65.5 32.5 67.4 33.0C69.3 33.6 70.3 34.4 72.2 34.8C74.1 35.2 77.1 34.7 78.6 35.5C80.1 36.2 80.5 38.5 81.3 39.4C82.1 40.4 82.7 39.9 83.3 41.2C84.0 42.5 84.8 45.4 85.2 47.1C85.6 48.9 85.6 49.9 85.6 51.8C85.7 53.7 85.5 56.3 85.4 58.6C85.3 60.8 85.0 63.4 85.1 65.4Z" fill="none" stroke="currentColor" stroke-width="1.5" stroke-linecap="round" stroke-linejoin="round"></path><path d="M33.9 57.9C34.1 55.4 35.5 55.4 36.1 53.2C36.7 51.0 37.6 47.3 37.6 44.7C37.7 42.0 35.1 39.1 36.5 37.2C38.0 35.4 43.3 34.9 46.1 33.6C48.8 32.2 50.4 30.4 53.1 29.2C55.8 27.9 59.6 26.0 62.3 26.0C65.1 26.0 67.0 28.3 69.7 29.1C72.5 29.9 75.9 29.6 78.8 30.8C81.7 32.0 85.5 34.4 87.0 36.5C88.4 38.5 87.4 40.8 87.6 43.3C87.8 45.7 88.0 48.3 88.3 51.2C88.6 54.1 89.9 58.0 89.6 60.9C89.3 63.8 88.0 67.6 86.4 68.7C84.9 69.9 82.6 68.3 80.1 68.0C77.6 67.7 74.3 66.9 71.5 67.0C68.6 67.1 65.9 68.5 63.0 68.6C60.1 68.8 57.4 68.0 54.2 67.9C51.0 67.7 47.0 67.6 43.8 67.7C40.7 67.8 36.9 70.1 35.3 68.4C33.6 66.8 33.8 60.5 33.9 57.9Z" fill="var(--w-gray)" stroke="none"></path><path d="M32.6 58.9C32.6 56.6 32.9 54.1 33.2 52.0C33.4 50.0 34.0 48.4 34.2 46.4C34.5 44.5 34.4 42.6 34.5 40.4C34.6 38.3 33.6 35.1 34.9 33.6C36.1 32.1 39.7 32.1 41.9 31.3C44.1 30.5 46.0 29.6 48.1 28.8C50.1 28.0 52.1 27.4 54.1 26.5C56.2 25.7 58.4 23.9 60.5 23.8C62.6 23.7 65.0 25.2 66.9 26.0C68.7 26.7 69.6 27.5 71.5 28.6C73.4 29.6 76.4 31.6 78.3 32.4C80.1 33.3 81.3 32.5 82.3 33.8C83.3 35.1 83.6 38.3 84.3 40.3C85.0 42.3 86.0 43.6 86.5 45.7C87.0 47.9 87.1 50.8 87.3 53.0C87.4 55.2 87.8 56.7 87.6 58.9C87.3 61.1 87.3 64.8 85.9 66.1C84.5 67.4 81.1 66.7 79.1 66.8C77.1 66.8 76.1 66.5 73.9 66.4C71.7 66.4 68.0 66.5 65.6 66.5C63.3 66.5 61.9 66.5 59.9 66.2C57.9 65.9 55.8 65.0 53.6 64.8C51.4 64.6 49.1 64.7 46.9 64.9C44.7 65.1 42.7 66.1 40.5 66.2C38.3 66.3 34.9 66.8 33.6 65.6C32.2 64.4 32.7 61.2 32.6 58.9Z" fill="none" stroke="currentColor" stroke-width="1.6" stroke-linecap="round" stroke-linejoin="round"></path><path d="M34.4 60.1C35.4 60.2 38.0 60.5 40.3 60.4C42.7 60.3 46.1 59.4 48.5 59.5C50.9 59.6 52.7 61.0 54.8 61.0C56.8 61.0 58.7 59.5 60.8 59.4C62.9 59.2 65.0 59.7 67.2 60.1C69.4 60.4 72.2 61.4 74.2 61.5C76.3 61.6 77.6 60.8 79.7 60.5C81.7 60.3 85.3 59.9 86.5 59.8" fill="none" stroke="currentColor" stroke-width="1.2" stroke-linecap="round" stroke-linejoin="round"></path><path d="M60.7 26.5C60.7 27.3 60.7 29.7 60.7 31.7C60.7 33.7 60.4 36.3 60.5 38.7C60.5 41.1 61.1 43.9 61.2 46.0C61.3 48.2 61.4 49.5 61.2 51.5C61.0 53.5 60.2 56.9 60.0 58.0" fill="none" stroke="currentColor" stroke-width="1.0" stroke-linecap="round" stroke-linejoin="round"></path><path d="M43.3 48.0C44.3 47.9 47.5 47.8 49.4 47.5C51.4 47.2 54.1 46.4 55.0 46.1" fill="none" stroke="currentColor" stroke-width="1.5" stroke-linecap="round" stroke-linejoin="round"></path><path d="M64.7 47.2C66.0 47.3 70.4 47.7 72.3 47.8C74.3 47.8 75.6 47.7 76.3 47.7" fill="none" stroke="currentColor" stroke-width="1.5" stroke-linecap="round" stroke-linejoin="round"></path><circle cx="49.0" cy="58.0" r="2.2" fill="currentColor"></circle><circle cx="71.0" cy="58.0" r="2.2" fill="currentColor"></circle><path d="M60.6 55.9C60.3 57.2 59.5 61.6 58.7 63.7C58.0 65.8 55.1 67.7 55.9 68.8C56.7 69.8 62.3 69.8 63.6 70.0" fill="none" stroke="currentColor" stroke-width="1.5" stroke-linecap="round" stroke-linejoin="round"></path><path d="M53.3 85.4C54.5 85.4 58.5 85.1 60.5 85.4C62.5 85.7 64.6 86.7 65.4 87.0" fill="none" stroke="currentColor" stroke-width="1.5" stroke-linecap="round" stroke-linejoin="round"></path><path d="M39.2 103.9C40.4 104.7 44.4 107.2 46.7 108.6C49.0 110.0 51.3 112.8 52.8 112.3C54.3 111.7 54.7 107.4 55.8 105.4C56.8 103.5 58.0 100.4 59.3 100.5C60.6 100.7 62.0 104.4 63.6 106.3C65.1 108.3 66.9 111.9 68.6 112.2C70.3 112.6 72.0 109.8 73.7 108.4C75.4 106.9 78.1 104.2 79.0 103.4" fill="none" stroke="currentColor" stroke-width="1.4" stroke-linecap="round" stroke-linejoin="round"></path></svg>
