<svg viewBox="0 0 120 120" aria-hidden="true" focusable="false"><path d="M22.4 21.5C25.0 20.0 29.2 20.6 32.0 18.8C34.8 17.0 35.9 11.9 39.3 10.8C42.7 9.6 48.6 12.5 52.2 11.8C55.7 11.1 58.5 7.1 60.7 6.7C62.9 6.2 63.3 8.0 65.6 9.0C67.9 10.1 71.3 12.1 74.5 12.9C77.7 13.7 82.0 13.2 84.8 13.9C87.7 14.5 89.0 16.7 91.5 16.9C93.9 17.1 97.5 13.6 99.5 15.3C101.5 16.9 102.2 23.2 103.5 26.6C104.7 30.1 105.8 32.9 107.1 35.9C108.3 38.8 110.1 41.6 111.1 44.2C112.2 46.8 113.4 48.6 113.4 51.5C113.5 54.4 111.8 58.6 111.4 61.7C111.1 64.7 111.6 67.5 111.2 69.6C110.8 71.7 110.0 71.9 109.1 74.2C108.1 76.4 106.1 80.3 105.6 83.3C105.1 86.3 107.2 90.1 106.1 92.2C105.0 94.3 100.7 94.7 98.9 95.8C97.2 96.9 97.3 97.3 95.6 98.9C94.0 100.5 91.8 103.1 89.2 105.3C86.7 107.5 82.9 110.2 80.5 112.0C78.1 113.7 77.9 115.6 74.9 115.7C71.9 115.9 66.0 113.6 62.3 113.1C58.7 112.5 56.5 113.4 53.1 112.6C49.6 111.8 44.8 108.4 41.6 108.3C38.5 108.2 36.3 113.3 34.0 112.0C31.8 110.7 30.1 103.1 28.2 100.6C26.2 98.1 24.7 99.0 22.3 97.2C19.9 95.4 16.4 92.0 13.8 89.6C11.2 87.3 7.9 85.4 6.8 83.3C5.7 81.1 6.5 79.8 6.9 76.6C7.4 73.4 9.8 67.1 9.4 64.0C9.0 61.0 5.1 61.6 4.7 58.3C4.3 55.0 6.0 47.2 6.8 44.2C7.6 41.2 8.5 42.1 9.6 40.3C10.7 38.6 12.3 35.9 13.5 33.8C14.6 31.7 14.9 29.9 16.4 27.8C17.9 25.8 19.8 23.0 22.4 21.5Z" fill="var(--w-sage)" stroke="none"></path><path d="M85.7 66.9C85.8 71.4 87.6 78.2 87.4 81.3C87.2 84.4 85.3 84.2 84.6 85.5C83.9 86.7 83.5 87.4 83.2 88.8C82.8 90.2 83.2 92.8 82.4 93.8C81.6 94.8 80.0 93.8 78.2 94.6C76.5 95.4 73.6 98.0 72.1 98.7C70.6 99.4 71.8 98.7 69.1 98.9C66.4 99.1 58.5 100.0 56.1 99.9C53.6 99.8 56.1 99.1 54.3 98.2C52.4 97.4 46.7 95.9 45.0 94.8C43.2 93.7 44.6 92.1 43.7 91.6C42.9 91.0 40.4 92.5 39.9 91.5C39.4 90.5 41.4 87.9 40.8 85.3C40.2 82.7 37.0 78.9 36.2 75.9C35.4 73.0 35.5 71.0 36.0 67.5C36.4 64.1 38.4 59.0 38.7 55.3C39.0 51.6 37.2 47.5 37.6 45.3C37.9 43.1 39.9 43.1 41.0 41.8C42.0 40.6 42.7 38.9 43.7 37.8C44.7 36.7 45.6 35.4 47.1 35.2C48.6 35.0 50.9 37.6 52.5 36.8C54.2 35.9 54.0 31.0 56.8 30.2C59.6 29.5 66.8 31.8 69.3 32.2C71.7 32.6 70.0 32.6 71.5 32.7C72.9 32.8 76.2 32.0 77.9 32.7C79.6 33.5 80.3 35.7 81.7 37.2C83.1 38.7 85.0 40.7 86.2 41.9C87.3 43.1 88.6 42.3 88.7 44.4C88.8 46.5 87.2 50.8 86.8 54.5C86.3 58.3 85.6 62.5 85.7 66.9Z" fill="var(--s3)" stroke="none" opacity="0.88"></path><path d="M84.7 63.7C84.8 67.6 85.1 74.1 84.9 77.1C84.6 80.2 83.6 80.6 83.2 82.3C82.8 84.0 83.4 85.7 82.6 87.2C81.8 88.7 79.4 90.1 78.6 91.3C77.8 92.5 78.9 93.8 77.6 94.6C76.3 95.5 73.1 96.2 71.0 96.7C68.9 97.2 67.5 97.4 64.9 97.6C62.3 97.7 58.2 97.7 55.6 97.5C53.0 97.4 51.1 97.1 49.2 96.7C47.4 96.2 45.7 95.6 44.4 94.9C43.0 94.2 42.3 93.3 41.4 92.3C40.5 91.3 40.0 90.8 39.1 89.1C38.2 87.4 36.6 84.3 35.9 82.2C35.2 80.1 34.8 79.8 34.8 76.7C34.8 73.6 35.6 67.9 35.7 63.6C35.7 59.4 34.9 54.1 35.0 51.0C35.1 47.8 35.7 46.3 36.2 44.6C36.7 42.8 37.7 42.1 38.2 40.6C38.8 39.0 38.4 36.4 39.6 35.3C40.8 34.1 43.9 34.4 45.5 33.7C47.2 33.0 47.8 31.8 49.3 31.1C50.8 30.4 52.3 29.6 54.6 29.6C57.0 29.6 60.8 31.0 63.4 31.2C66.1 31.3 68.5 30.2 70.5 30.7C72.5 31.1 74.1 33.2 75.5 33.9C76.9 34.6 77.9 33.8 78.9 34.8C79.9 35.8 80.4 38.1 81.3 40.1C82.2 42.0 83.7 44.1 84.2 46.4C84.7 48.7 84.2 50.9 84.3 53.8C84.3 56.7 84.6 59.9 84.7 63.7Z" fill="none" stroke="currentColor" stroke-width="1.5" stroke-linecap="round" stroke-linejoin="round"></path><path d="M31.9 75.5C31.8 75.0 31.3 73.3 30.9 72.7C30.4 72.0 29.6 72.4 29.3 71.5C29.0 70.6 29.1 68.5 29.1 67.4C29.2 66.3 29.3 65.5 29.6 64.7C29.9 63.9 30.6 62.9 30.9 62.5C31.2 62.0 31.5 62.0 31.6 61.9" fill="none" stroke="currentColor" stroke-width="1.4" stroke-linecap="round" stroke-linejoin="round"></path><path d="M88.6 60.2C88.9 60.7 90.1 62.3 90.6 63.2C91.1 64.0 91.4 64.9 91.6 65.5C91.8 66.1 91.8 65.8 91.8 66.7C91.7 67.6 91.7 69.7 91.4 70.9C91.0 72.1 90.1 73.2 89.6 73.8C89.0 74.4 88.5 74.4 88.3 74.5" fill="none" stroke="currentColor" stroke-width="1.4" stroke-linecap="round" stroke-linejoin="round"></path><path d="M36.9 59.7C35.9 59.1 37.5 50.3 39.4 46.4C41.3 42.4 44.2 38.4 48.3 35.9C52.3 33.4 58.8 31.5 63.6 31.4C68.5 31.3 73.5 32.8 77.5 35.3C81.4 37.7 85.6 41.9 87.5 46.0C89.3 50.1 90.0 58.9 88.9 59.9C87.7 60.8 83.4 53.8 80.3 51.8C77.2 49.7 73.1 48.7 70.2 47.4C67.4 46.2 66.1 44.0 63.2 44.2C60.3 44.5 55.9 47.9 52.8 48.9C49.8 49.8 47.7 48.1 45.1 50.0C42.4 51.8 37.8 60.3 36.9 59.7Z" fill="var(--h-gray)" stroke="none" opacity="0.92"></path><path d="M36.2 58.8C35.7 58.3 34.7 53.1 34.5 50.6C34.3 48.1 33.8 46.1 34.8 44.1C35.9 42.0 38.9 40.1 40.9 38.4C42.9 36.6 44.9 34.7 46.7 33.6C48.6 32.5 49.6 32.2 51.9 31.7C54.1 31.3 57.7 30.8 60.3 30.8C62.8 30.9 65.1 31.7 67.3 32.3C69.5 32.8 71.5 33.0 73.4 34.2C75.3 35.4 76.8 38.0 78.5 39.4C80.3 40.9 82.7 40.8 84.0 42.9C85.3 44.9 85.7 49.3 86.4 51.8C87.0 54.4 88.7 58.2 87.9 58.3C87.0 58.4 82.7 54.3 81.2 52.5C79.7 50.7 80.4 48.5 78.7 47.6C77.0 46.7 73.3 47.3 71.1 47.1C68.8 46.8 67.0 46.7 65.3 46.1C63.5 45.5 62.4 43.5 60.5 43.5C58.5 43.4 55.6 45.1 53.6 45.7C51.6 46.3 50.1 46.7 48.5 46.9C46.9 47.1 45.7 45.8 43.9 46.9C42.1 48.1 39.2 51.8 37.9 53.8C36.6 55.8 36.8 59.3 36.2 58.8Z" fill="none" stroke="currentColor" stroke-width="1.4" stroke-linecap="round" stroke-linejoin="round"></path><path d="M43.6 48.1C44.5 48.1 46.8 48.3 48.8 47.9C50.8 47.6 54.2 46.4 55.3 46.1" fill="none" stroke="currentColor" stroke-width="1.5" stroke-linecap="round" stroke-linejoin="round"></path><path d="M64.5 47.6C65.7 47.6 69.3 47.0 71.5 47.3C73.7 47.5 76.7 48.7 77.7 49.0" fill="none" stroke="currentColor" stroke-width="1.5" stroke-linecap="round" stroke-linejoin="round"></path><path d="M58.3 57.2C58.5 58.6 57.6 61.9 57.2 63.0C56.9 64.2 56.6 63.6 56.1 64.0C55.6 64.4 55.5 65.1 54.0 65.3C52.6 65.4 49.1 65.3 47.4 64.9C45.7 64.5 44.7 63.1 43.8 62.8C42.9 62.5 42.4 63.5 42.0 63.2C41.5 62.9 41.1 61.8 41.0 60.9C40.9 60.0 41.2 59.1 41.4 57.9C41.6 56.7 42.0 55.0 42.1 53.9C42.1 52.8 41.4 51.8 41.7 51.3C42.0 50.8 42.7 51.1 43.9 51.0C45.1 51.0 47.2 50.8 48.9 51.0C50.7 51.2 53.1 52.0 54.2 52.2C55.4 52.4 55.6 51.9 55.9 52.3C56.2 52.8 55.5 54.1 55.9 54.9C56.3 55.7 58.1 55.9 58.3 57.2Z" fill="none" stroke="currentColor" stroke-width="1.4" stroke-linecap="round" stroke-linejoin="round"></path><circle cx="50.0" cy="58.0" r="1.8" fill="currentColor"></circle><path d="M79.8 58.9C79.9 60.5 80.5 62.1 80.1 62.5C79.7 63.0 78.4 61.4 77.6 61.7C76.8 62.1 76.7 64.1 75.5 64.5C74.2 64.8 71.8 63.7 70.1 63.7C68.5 63.8 66.6 65.1 65.6 64.9C64.6 64.7 64.7 63.2 64.2 62.5C63.7 61.9 63.1 61.7 62.7 61.1C62.2 60.5 61.3 60.1 61.5 58.8C61.6 57.5 63.0 54.4 63.4 53.3C63.8 52.3 63.4 52.7 64.0 52.5C64.5 52.2 65.5 51.9 66.6 51.6C67.7 51.4 68.9 50.7 70.5 50.8C72.0 50.9 74.5 51.8 75.9 52.2C77.3 52.7 78.3 53.5 78.9 53.7C79.5 53.8 79.3 52.2 79.5 53.1C79.6 53.9 79.7 57.4 79.8 58.9Z" fill="none" stroke="currentColor" stroke-width="1.4" stroke-linecap="round" stroke-linejoin="round"></path><circle cx="72.0" cy="58.0" r="1.8" fill="currentColor"></circle><path d="M57.4 55.8C58.3 56.0 62.1 56.8 63.0 57.1" fill="none" stroke="currentColor" stroke-width="1.4" stroke-linecap="round" stroke-linejoin="round"></path><path d="M40.0 55.2C39.1 54.8 35.7 53.2 34.8 52.8" fill="none" stroke="currentColor" stroke-width="1.4" stroke-linecap="round" stroke-linejoin="round"></path><path d="M79.5 55.6C80.6 55.1 85.3 53.1 86.5 52.6" fill="none" stroke="currentColor" stroke-width="1.4" stroke-linecap="round" stroke-linejoin="round"></path><path d="M61.1 56.0C60.6 57.2 59.3 60.6 58.5 63.1C57.8 65.5 55.6 69.6 56.6 70.9C57.6 72.2 63.0 70.8 64.3 70.7" fill="none" stroke="currentColor" stroke-width="1.5" stroke-linecap="round" stroke-linejoin="round"></path><path d="M54.3 85.7C55.2 85.9 57.7 86.9 59.7 86.9C61.8 87.0 65.5 86.2 66.6 86.0" fill="none" stroke="currentColor" stroke-width="1.5" stroke-linecap="round" stroke-linejoin="round"></path><path d="M50.1 78.9C51.2 78.5 54.7 76.4 56.4 76.5C58.1 76.6 59.9 79.1 60.6 79.6" fill="none" stroke="currentColor" stroke-width="1.8" stroke-linecap="round" stroke-linejoin="round"></path><path d="M59.3 80.9C60.0 80.4 61.3 77.9 63.0 77.7C64.8 77.4 68.7 79.3 69.9 79.7" fill="none" stroke="currentColor" stroke-width="1.8" stroke-linecap="round" stroke-linejoin="round"></path><path d="M35.1 55.5C35.9 56.1 39.1 58.5 39.9 59.0" fill="none" stroke="currentColor" stroke-width="1" stroke-linecap="round" stroke-linejoin="round"></path><path d="M85.6 56.8C84.7 56.9 80.7 57.5 79.7 57.6" fill="none" stroke="currentColor" stroke-width="1" stroke-linecap="round" stroke-linejoin="round"></path><path d="M36.7 61.5C37.5 61.6 40.5 61.9 41.3 62.0" fill="none" stroke="currentColor" stroke-width="1" stroke-linecap="round" stroke-linejoin="round"></path><path d="M84.6 61.5C83.6 61.5 79.7 61.8 78.8 61.8" fill="none" stroke="currentColor" stroke-width="1" stroke-linecap="round" stroke-linejoin="round"></path><path d="M47.5 40.0C48.6 40.0 51.5 40.2 53.7 40.2C55.9 40.2 58.6 39.9 60.7 40.0C62.9 40.2 64.4 41.1 66.8 41.0C69.1 41.0 73.5 39.9 74.9 39.7" fill="none" stroke="currentColor" stroke-width="1" stroke-linecap="round" stroke-linejoin="round"></path><path d="M46.9 44.0C48.0 44.3 51.2 45.7 53.4 45.6C55.7 45.5 58.4 43.6 60.3 43.5C62.2 43.3 62.8 44.4 64.9 44.6C66.9 44.9 71.3 44.8 72.6 44.8" fill="none" stroke="currentColor" stroke-width="1" stroke-linecap="round" stroke-linejoin="round"></path><path d="M47.5 80.6C47.3 82.1 46.6 88.2 46.4 89.8" fill="none" stroke="currentColor" stroke-width="1" stroke-linecap="round" stroke-linejoin="round"></path><path d="M72.2 81.1C72.4 82.9 73.3 89.9 73.5 91.6" fill="none" stroke="currentColor" stroke-width="1" stroke-linecap="round" stroke-linejoin="round"></path></svg>
